<?xml version="1.0" encoding="UTF-8"?>
<svg id="Layer_1" data-name="Layer 1" xmlns="http://www.w3.org/2000/svg" viewBox="0 0 783.64 783.64">
  <defs>
    <style>
      .cls-1 {
        fill: #9e6643;
      }
    </style>
  </defs>
  <g id="_328_Internet_Network_Network_Security" data-name="328, Internet, Network, Network Security">
    <g>
      <path class="cls-1" d="m234.87,529.55c-71.97,0-131.36-58.69-131.36-131.36v-78.26c0-4.89,4.19-9.08,9.08-9.08h244.56c4.89,0,9.08,4.19,9.08,9.08v78.96c0,71.27-59.39,130.66-131.36,130.66Zm-113.2-201.24v69.87c0,62.89,51.01,113.89,113.89,113.89s113.9-51.01,113.9-113.89v-69.87H121.67Z"/>
      <path class="cls-1" d="m317.32,328.31h-164.9c-4.89,0-9.08-4.19-9.08-9.08v-29.35c0-50.31,40.53-90.84,90.84-90.84s90.84,40.53,90.84,90.84v30.04c.7,4.19-2.8,8.39-7.69,8.39Zm-155.82-17.47h147.43v-20.96c0-40.53-32.84-73.37-73.37-73.37s-74.06,32.84-74.06,73.37v20.96h0Z"/>
      <path class="cls-1" d="m317.32,328.31c-4.89,0-9.08-4.19-9.08-9.08v-29.35c0-40.53-32.84-73.37-73.37-73.37s-73.37,32.84-73.37,73.37v30.04c0,4.89-4.19,9.09-9.08,9.09s-8.39-4.89-8.39-9.09v-30.04c0-50.31,40.53-90.84,90.84-90.84s90.84,40.53,90.84,90.84v30.04c0,4.19-3.49,8.39-8.39,8.39Z"/>
      <path class="cls-1" d="m287.28,328.31h-104.81c-4.89,0-9.08-4.19-9.08-9.08v-29.35c0-33.54,27.25-61.49,61.49-61.49s61.49,27.25,61.49,61.49v30.04c0,4.19-4.19,8.39-9.08,8.39Zm-95.73-17.47h87.34v-20.96c0-23.76-19.56-44.02-44.02-44.02s-44.02,19.56-44.02,44.02v20.96h.7Z"/>
      <path class="cls-1" d="m357.15,363.25h-122.28c-4.89,0-9.08-4.19-9.08-9.08s4.19-8.39,9.08-8.39h122.28c4.89,0,9.08,4.19,9.08,9.08s-4.19,8.39-9.08,8.39Z"/>
      <rect class="cls-1" x="139.14" y="345.78" width="17.47" height="17.47"/>
      <rect class="cls-1" x="165" y="345.78" width="17.47" height="17.47"/>
      <rect class="cls-1" x="191.55" y="345.78" width="17.47" height="17.47"/>
      <path class="cls-1" d="m252.34,459.67h-34.94c-4.89,0-9.08-4.19-9.08-9.08v-11.88c-5.59-6.29-8.39-14.67-8.39-23.06,0-19.56,15.37-34.94,34.94-34.94s34.94,15.37,34.94,34.94c0,8.39-2.8,16.77-9.08,23.06v11.88c.7,4.89-3.49,9.08-8.39,9.08Zm-25.85-17.47h17.47v-6.99c0-2.79,1.4-4.89,2.8-6.29,3.49-3.49,5.59-8.38,5.59-13.28,0-9.78-7.68-17.47-17.47-17.47s-17.47,7.69-17.47,17.47c0,4.89,2.09,9.78,5.59,13.28,2.09,1.4,2.8,4.19,2.8,6.29v6.99h.7Z"/>
      <path class="cls-1" d="m104.21,240.97c-4.89,0-9.08-4.19-9.08-9.08v-60.79c0-4.89,4.19-9.08,9.08-9.08s9.08,4.19,9.08,9.08v61.49c-.7,4.19-4.89,8.39-9.08,8.39Z"/>
      <path class="cls-1" d="m112.59,363.25h-44.02c-4.89,0-9.08-4.19-9.08-9.08s4.19-9.09,9.08-9.09h44.02c4.89,0,9.08,4.19,9.08,9.09s-4.19,9.08-9.08,9.08Z"/>
      <path class="cls-1" d="m51.8,380.72c-14.67,0-26.55-11.88-26.55-26.55s11.88-26.55,26.55-26.55,26.55,11.88,26.55,26.55-12.58,26.55-26.55,26.55Zm0-34.94c-4.89,0-9.08,4.19-9.08,9.08s4.19,9.09,9.08,9.09,9.08-4.19,9.08-9.09-4.89-9.08-9.08-9.08Z"/>
      <path class="cls-1" d="m112.59,450.59h-44.02c-4.89,0-9.08-4.19-9.08-9.08s4.19-9.09,9.08-9.09h44.02c4.89,0,9.08,4.19,9.08,9.09s-4.19,9.08-9.08,9.08Z"/>
      <path class="cls-1" d="m51.8,468.06c-14.67,0-26.55-11.88-26.55-26.55s11.88-26.55,26.55-26.55,26.55,11.88,26.55,26.55-12.58,26.55-26.55,26.55Zm0-34.94c-4.89,0-9.08,4.19-9.08,9.08s4.19,9.09,9.08,9.09,9.08-4.19,9.08-9.09c-.7-4.89-4.89-9.08-9.08-9.08Z"/>
      <path class="cls-1" d="m401.17,363.25h-44.02c-4.89,0-9.08-4.19-9.08-9.08s4.19-9.09,9.08-9.09h44.02c4.89,0,9.08,4.19,9.08,9.09s-4.89,9.08-9.08,9.08Z"/>
      <path class="cls-1" d="m104.21,275.91c-14.67,0-26.55-11.88-26.55-26.55s11.88-26.55,26.55-26.55,26.55,11.88,26.55,26.55-12.58,26.55-26.55,26.55Zm0-34.94c-4.89,0-9.08,4.19-9.08,9.08s4.19,9.09,9.08,9.09,9.08-4.19,9.08-9.09-4.89-9.08-9.08-9.08Z"/>
      <path class="cls-1" d="m366.23,240.97c-4.89,0-9.08-4.19-9.08-9.08v-60.79c0-4.89,4.19-9.08,9.08-9.08s8.39,4.19,8.39,9.08v61.49c0,4.19-4.19,8.39-8.39,8.39Z"/>
      <path class="cls-1" d="m366.23,275.91c-14.67,0-26.55-11.88-26.55-26.55s11.88-26.55,26.55-26.55,26.55,11.88,26.55,26.55-12.58,26.55-26.55,26.55Zm0-34.94c-4.89,0-9.08,4.19-9.08,9.08s4.19,9.09,9.08,9.09,9.08-4.19,9.08-9.09-4.89-9.08-9.08-9.08Z"/>
      <path class="cls-1" d="m401.17,450.59h-44.02c-4.89,0-9.08-4.19-9.08-9.08s4.19-9.09,9.08-9.09h44.02c4.89,0,9.08,4.19,9.08,9.09-.7,4.89-4.89,9.08-9.08,9.08Z"/>
      <path class="cls-1" d="m418.64,468.06c-14.67,0-26.55-11.88-26.55-26.55s11.88-26.55,26.55-26.55,26.55,11.88,26.55,26.55-12.58,26.55-26.55,26.55Zm0-34.94c-4.89,0-9.08,4.19-9.08,9.08s4.19,9.09,9.08,9.09,9.08-4.19,9.08-9.09c-.7-4.89-4.89-9.08-9.08-9.08Z"/>
      <path class="cls-1" d="m418.64,380.72c-14.67,0-26.55-11.88-26.55-26.55s11.88-26.55,26.55-26.55,26.55,11.88,26.55,26.55-12.58,26.55-26.55,26.55Zm0-34.94c-4.89,0-9.08,4.19-9.08,9.08s4.19,9.09,9.08,9.09,9.08-4.19,9.08-9.09-4.89-9.08-9.08-9.08Z"/>
      <path class="cls-1" d="m331.3,529.55h-192.15c-4.89,0-9.08-4.19-9.08-9.08s4.19-9.08,9.08-9.08h192.15c4.89,0,9.08,4.19,9.08,9.08-.7,4.89-4.89,9.08-9.08,9.08Z"/>
    </g>
  </g>
</svg>