<svg id="Layer_1" data-name="Layer 1" xmlns="http://www.w3.org/2000/svg" viewBox="0 0 868.74 803.97">
  <defs>
    <style>
      .cls-1 {
        fill: #9e6643;
      }
    </style>
  </defs>
  <path class="cls-1" d="m638.28,288.24h-98.13v62.1h98.13v-62.1Zm-27.21,8.29l-21.85,17.45-21.86-17.45h43.71Zm18.92,45.52h-81.55v-45.52h5.63l35.15,28.07,35.14-28.07h5.63v45.52Z"/>
  <path class="cls-1" d="m405.47,637.16c1.56,15.65,8.58,30.39,19.75,41.51,1.36,1.36,3.19,2.08,5.05,2.08.72,0,1.45-.11,2.16-.34,2.54-.81,4.43-2.96,4.89-5.59,1.84-10.46,10.87-18.06,21.45-18.06h35.75c9.05,0,17.02,5.48,20.31,13.97.93,2.39,3.06,4.11,5.6,4.5,2.53.38,5.08-.62,6.69-2.62,11.13-13.97,16.29-31.53,14.52-49.44-3.19-32.23-28.88-57.92-61.09-61.09-2.42-.25-4.78-.37-7.01-.37-19.29,0-37.78,8.21-50.74,22.52-13.13,14.5-19.29,33.29-17.35,52.93Zm68.09,9.26c-14.28,0-25.92-11.62-25.92-25.92s11.63-25.92,25.92-25.92,25.92,11.63,25.92,25.92-11.62,25.92-25.92,25.92Zm-40.11-52.56c10.25-11.32,24.86-17.81,40.11-17.81,1.75,0,3.63.1,5.6.29,25.43,2.5,45.72,22.79,48.24,48.25,1.04,10.57-.96,20.98-5.69,30.17-5.66-6.51-13.53-10.77-22.26-11.94,5.17-6,8.32-13.78,8.32-22.31,0-18.86-15.35-34.21-34.21-34.21s-34.21,15.35-34.21,34.21c0,9.06,3.57,17.29,9.34,23.42-8.59,2.49-15.94,8.07-20.6,15.63-4.61-7.14-7.51-15.3-8.36-23.81-1.54-15.55,3.33-30.43,13.72-41.89Z"/>
  <path class="cls-1" d="m226.84,500.96c2.06,2.03,5.13,2.63,7.8,1.51,2.67-1.11,4.4-3.72,4.4-6.61v-6.3c0-22.11,16.56-40.65,38.52-43.12.09,0,.17-.02.26-.03,1.67-.18,3.2-.27,4.65-.27h62.31c23.94,0,43.42,19.48,43.42,43.42v6.3c0,2.89,1.74,5.5,4.4,6.61.89.38,1.83.55,2.76.55,1.85,0,3.67-.72,5.04-2.06,23.71-23.45,36.77-54.64,36.77-87.83,0-68.12-55.43-123.54-123.55-123.54s-123.55,55.42-123.55,123.54c0,33.2,13.06,64.39,36.78,87.83Zm93.36-69.14h-13.21c-23.11-3.23-40.98-23.08-40.98-47.08,0-26.25,21.35-47.6,47.58-47.6s47.6,21.35,47.6,47.6c0,24-17.87,43.85-41,47.08Zm-6.59-127.91c60.23,0,109.22,48.99,109.22,109.22,0,23.68-7.53,46.22-21.47,64.94-4.99-24.58-25.65-43.53-51.04-45.96,14.16-10.98,23.31-28.1,23.31-47.37,0-33.11-26.93-60.04-60.04-60.04s-60.02,26.94-60.02,60.04c0,19.27,9.16,36.4,23.32,47.38-.18.02-.36.03-.56.05-.29.02-.58.05-.87.1-25.08,3.03-44.78,21.84-49.62,45.8-13.94-18.71-21.47-41.25-21.47-64.94,0-60.22,49-109.22,109.23-109.22Z"/>
  <path class="cls-1" d="m589.2,409.04c51.05,0,92.58-41.53,92.58-92.58s-41.53-92.57-92.58-92.57-92.57,41.53-92.57,92.57,41.52,92.58,92.57,92.58Zm0-170.82c43.15,0,78.25,35.1,78.25,78.24s-35.1,78.25-78.25,78.25-78.24-35.1-78.24-78.25,35.1-78.24,78.24-78.24Z"/>
  <path class="cls-1" d="m168.85,413.13c0,79.83,64.94,144.78,144.76,144.78,21.45,0,42.86-4.89,62.27-14.19l28.3,31.49c-14.37,18.06-20.98,40.54-18.68,63.92,4.14,41.7,37.4,74.95,79.07,79.06,2.92.29,5.94.44,8.98.44,24.94,0,48.85-10.6,65.59-29.08,16.98-18.75,24.95-43.03,22.45-68.36-4.14-41.69-37.4-74.94-79.09-79.08-17.94-1.77-36.2,2.09-52.05,10.9l-25.23-28.06c33.42-27.44,53.15-68.68,53.15-111.82,0-11.37-1.39-22.8-4.14-34.05l34.32-12.14c19.07,37.97,57.86,62.15,100.63,62.15,62.1,0,112.62-50.53,112.62-112.63s-50.52-112.63-112.62-112.63-112.62,50.52-112.62,112.63c0,5.86.49,11.8,1.45,17.75l-35.87,12.67c-24.8-47.91-74.55-78.52-128.55-78.52-79.82,0-144.76,64.94-144.76,144.76Zm144.76-130.43c50.6,0,97.08,29.86,118.41,76.07,1.55,3.36,5.4,4.98,8.89,3.75l47.69-16.85c3.4-1.2,5.38-4.75,4.61-8.28-1.53-7.01-2.3-14.05-2.3-20.93,0-54.2,44.1-98.31,98.3-98.31s98.3,44.1,98.3,98.31-44.09,98.3-98.3,98.3c-39.28,0-74.73-23.38-90.31-59.58-1.49-3.46-5.42-5.18-8.97-3.92l-46.7,16.52c-3.59,1.27-5.56,5.12-4.49,8.77,3.53,12.05,5.32,24.36,5.32,36.58,0,41.21-20.01,80.51-53.53,105.11-1.64,1.2-2.68,3.03-2.89,5.04-.21,2.01.44,4.02,1.8,5.52l34.32,38.17c2.36,2.62,6.27,3.14,9.23,1.22,14.28-9.28,31.36-13.48,48.11-11.83,34.91,3.46,62.77,31.32,66.24,66.24,2.1,21.25-4.58,41.62-18.82,57.34-14.02,15.48-34.06,24.37-54.97,24.37-2.56,0-5.1-.13-7.56-.37-34.91-3.45-62.76-31.29-66.23-66.22-2.09-21.26,4.59-41.62,18.55-57.05.2-.18.65-.63.83-.84,2.38-2.73,2.35-6.8-.07-9.5l-36.18-40.26c-1.4-1.55-3.35-2.37-5.33-2.37-1.13,0-2.28.27-3.34.83-18.92,9.99-39.31,15.05-60.6,15.05-71.92,0-130.43-58.52-130.43-130.45s58.51-130.43,130.43-130.43Z"/>
</svg>