<?xml version="1.0" encoding="UTF-8"?>
<svg id="Layer_1" data-name="Layer 1" xmlns="http://www.w3.org/2000/svg" viewBox="0 0 868.74 803.97">
  <defs>
    <style>
      .cls-1 {
        fill: #9e6643;
      }
    </style>
  </defs>
  <path class="cls-1" d="m479.13,331.33h0c-2.73,0-5.7-.65-8.86-1.33-3.68-.8-7.49-1.63-11.47-1.63s-7.8.83-11.47,1.63c-3.17.68-6.14,1.33-8.88,1.33-11.96,0-11.96-12.93-11.96-17.8,0-3.08-3.47-9.83-6.54-15.79-4.98-9.67-9.28-18.03-6.85-23.19,3.87-8.3,15.77-8.3,19.68-8.3,5.63,0,11.58.72,16.83,1.35,3.62.43,7.06.85,9.2.85s5.18-.31,8.72-.67c4.86-.49,10.36-1.05,15.72-1.05,4.43,0,17.96,0,21.95,9.37,2.03,4.73-1.46,11.54-7.32,22.26-3.01,5.52-6.77,12.38-6.77,15.17,0,6.21-.88,10.43-2.78,13.3-1.99,2.99-5.08,4.5-9.18,4.5Zm-20.34-10.08c4.83,0,9.24.96,13.13,1.81,2.73.59,5.31,1.16,7.21,1.16h0c1.93,0,2.44-.54,2.88-1.2.74-1.12,1.64-3.67,1.64-9.48,0-4.54,3.52-10.99,7.6-18.46,2.87-5.26,7.68-14.06,7.02-16.32-1.38-3.25-6.45-4.91-15.04-4.91-4.96,0-10.26,4.1-14.94,4.57-3.75.38-7,.71-9.5.71s-6.1-.42-10.14-.91c-5.03-.61-10.73-4.85-15.89-4.85-7.28,0-11.61,1.37-12.87,4.08-.92,2.27,4.07,11.95,6.74,17.16,3.76,7.3,7.31,14.2,7.31,18.93,0,10.68,2.72,10.68,4.51,10.68,1.9,0,4.48-.56,7.22-1.16,3.89-.85,8.31-1.81,13.13-1.81Z"/>
  <path class="cls-1" d="m477.83,461.89s-.07.02-.07.07c0,.05.02.08.07.08.05,0,.08-.02.08-.08,0-.05-.02-.07-.08-.07Zm1.84-21.32v-.14c.1-.2.24-.4.44-.59,0-.05-.02-.1-.07-.14-.05-.05-.08-.1-.08-.14l-.08.07s-.14-.07-.29-.22h-.08c-.1.1-.24.25-.44.44-.2.2-.39.3-.59.3h-.22c-.2.14-.33.34-.4.59-.08.24-.28.42-.62.52-.2.05-.34.23-.44.55s-.2.48-.3.48h-.21c-.15.1-.26.29-.34.59-.07.29-.18.51-.33.66-.1.1-.3.4-.59.91-.3.52-.44.82-.44.92-.2-.05-.3-.02-.3.08s.02.15.04.18c.02.02.04.06.04.11v.08c-.15.14-.26.33-.34.55-.07.22-.16.46-.25.7-.05.1-.13.2-.22.29-.05.05-.13.1-.22.15-.05.19-.08.49-.08.88-.2.09-.28.18-.26.25.02.08,0,.21-.11.4-.1.25-.24.52-.44.81-.2.3-.27.56-.22.82v.14s.02.08.08.08v.07c0,.14-.08.24-.22.3,0,.05.05.07.14.07.2,0,.33-.08.4-.25.08-.18.24-.26.48-.26.1-.05.12-.14.07-.26-.05-.12.12-.16.52-.11.29-.54.59-1.01.88-1.4.1-.09.22-.15.37-.18.14-.02.27-.16.37-.4.05-.05.08-.1.08-.14v-.08c.05-.1.12-.17.22-.22.1-.05.17-.12.22-.22.14-.19.37-.53.66-1.03.3-.49.56-.75.82-.81-.05,0-.08-.05-.08-.14s.08-.18.22-.26c.14-.08.22-.14.22-.18l-.08-.14c0-.2.08-.34.22-.44.14-.1.22-.24.22-.44h-.08v-.14c.25-.25.36-.4.34-.44-.02-.05,0-.2.11-.44.05-.1.12-.16.22-.18.1-.03.15-.08.15-.18,0-.05-.02-.1-.04-.15-.02-.05-.04-.1-.04-.14.05-.1.11-.21.18-.33.08-.12.16-.19.26-.19-.05,0-.08-.05-.08-.14,0-.05.14-.27.4-.66.27-.39.43-.61.48-.66h-.22s-.08-.02-.08-.07Zm0,0v-.14c.1-.2.24-.4.44-.59,0-.05-.02-.1-.07-.14-.05-.05-.08-.1-.08-.14l-.08.07s-.14-.07-.29-.22h-.08c-.1.1-.24.25-.44.44-.2.2-.39.3-.59.3h-.22c-.2.14-.33.34-.4.59-.08.24-.28.42-.62.52-.2.05-.34.23-.44.55s-.2.48-.3.48h-.21c-.15.1-.26.29-.34.59-.07.29-.18.51-.33.66-.1.1-.3.4-.59.91-.3.52-.44.82-.44.92-.2-.05-.3-.02-.3.08s.02.15.04.18c.02.02.04.06.04.11v.08c-.15.14-.26.33-.34.55-.07.22-.16.46-.25.7-.05.1-.13.2-.22.29-.05.05-.13.1-.22.15-.05.19-.08.49-.08.88-.2.09-.28.18-.26.25.02.08,0,.21-.11.4-.1.25-.24.52-.44.81-.2.3-.27.56-.22.82v.14s.02.08.08.08v.07c0,.14-.08.24-.22.3,0,.05.05.07.14.07.2,0,.33-.08.4-.25.08-.18.24-.26.48-.26.1-.05.12-.14.07-.26-.05-.12.12-.16.52-.11.29-.54.59-1.01.88-1.4.1-.09.22-.15.37-.18.14-.02.27-.16.37-.4.05-.05.08-.1.08-.14v-.08c.05-.1.12-.17.22-.22.1-.05.17-.12.22-.22.14-.19.37-.53.66-1.03.3-.49.56-.75.82-.81-.05,0-.08-.05-.08-.14s.08-.18.22-.26c.14-.08.22-.14.22-.18l-.08-.14c0-.2.08-.34.22-.44.14-.1.22-.24.22-.44h-.08v-.14c.25-.25.36-.4.34-.44-.02-.05,0-.2.11-.44.05-.1.12-.16.22-.18.1-.03.15-.08.15-.18,0-.05-.02-.1-.04-.15-.02-.05-.04-.1-.04-.14.05-.1.11-.21.18-.33.08-.12.16-.19.26-.19-.05,0-.08-.05-.08-.14,0-.05.14-.27.4-.66.27-.39.43-.61.48-.66h-.22s-.08-.02-.08-.07Zm-1.84,21.32s-.07.02-.07.07c0,.05.02.08.07.08.05,0,.08-.02.08-.08,0-.05-.02-.07-.08-.07Zm0,0s-.07.02-.07.07c0,.05.02.08.07.08.05,0,.08-.02.08-.08,0-.05-.02-.07-.08-.07Zm1.84-21.32v-.14c.1-.2.24-.4.44-.59,0-.05-.02-.1-.07-.14-.05-.05-.08-.1-.08-.14l-.08.07s-.14-.07-.29-.22h-.08c-.1.1-.24.25-.44.44-.2.2-.39.3-.59.3h-.22c-.2.14-.33.34-.4.59-.08.24-.28.42-.62.52-.2.05-.34.23-.44.55s-.2.48-.3.48h-.21c-.15.1-.26.29-.34.59-.07.29-.18.51-.33.66-.1.1-.3.4-.59.91-.3.52-.44.82-.44.92-.2-.05-.3-.02-.3.08s.02.15.04.18c.02.02.04.06.04.11v.08c-.15.14-.26.33-.34.55-.07.22-.16.46-.25.7-.05.1-.13.2-.22.29-.05.05-.13.1-.22.15-.05.19-.08.49-.08.88-.2.09-.28.18-.26.25.02.08,0,.21-.11.4-.1.25-.24.52-.44.81-.2.3-.27.56-.22.82v.14s.02.08.08.08v.07c0,.14-.08.24-.22.3,0,.05.05.07.14.07.2,0,.33-.08.4-.25.08-.18.24-.26.48-.26.1-.05.12-.14.07-.26-.05-.12.12-.16.52-.11.29-.54.59-1.01.88-1.4.1-.09.22-.15.37-.18.14-.02.27-.16.37-.4.05-.05.08-.1.08-.14v-.08c.05-.1.12-.17.22-.22.1-.05.17-.12.22-.22.14-.19.37-.53.66-1.03.3-.49.56-.75.82-.81-.05,0-.08-.05-.08-.14s.08-.18.22-.26c.14-.08.22-.14.22-.18l-.08-.14c0-.2.08-.34.22-.44.14-.1.22-.24.22-.44h-.08v-.14c.25-.25.36-.4.34-.44-.02-.05,0-.2.11-.44.05-.1.12-.16.22-.18.1-.03.15-.08.15-.18,0-.05-.02-.1-.04-.15-.02-.05-.04-.1-.04-.14.05-.1.11-.21.18-.33.08-.12.16-.19.26-.19-.05,0-.08-.05-.08-.14,0-.05.14-.27.4-.66.27-.39.43-.61.48-.66h-.22s-.08-.02-.08-.07Zm0,0v-.14c.1-.2.24-.4.44-.59,0-.05-.02-.1-.07-.14-.05-.05-.08-.1-.08-.14l-.08.07s-.14-.07-.29-.22h-.08c-.1.1-.24.25-.44.44-.2.2-.39.3-.59.3h-.22c-.2.14-.33.34-.4.59-.08.24-.28.42-.62.52-.2.05-.34.23-.44.55s-.2.48-.3.48h-.21c-.15.1-.26.29-.34.59-.07.29-.18.51-.33.66-.1.1-.3.4-.59.91-.3.52-.44.82-.44.92-.2-.05-.3-.02-.3.08s.02.15.04.18c.02.02.04.06.04.11v.08c-.15.14-.26.33-.34.55-.07.22-.16.46-.25.7-.05.1-.13.2-.22.29-.05.05-.13.1-.22.15-.05.19-.08.49-.08.88-.2.09-.28.18-.26.25.02.08,0,.21-.11.4-.1.25-.24.52-.44.81-.2.3-.27.56-.22.82v.14s.02.08.08.08v.07c0,.14-.08.24-.22.3,0,.05.05.07.14.07.2,0,.33-.08.4-.25.08-.18.24-.26.48-.26.1-.05.12-.14.07-.26-.05-.12.12-.16.52-.11.29-.54.59-1.01.88-1.4.1-.09.22-.15.37-.18.14-.02.27-.16.37-.4.05-.05.08-.1.08-.14v-.08c.05-.1.12-.17.22-.22.1-.05.17-.12.22-.22.14-.19.37-.53.66-1.03.3-.49.56-.75.82-.81-.05,0-.08-.05-.08-.14s.08-.18.22-.26c.14-.08.22-.14.22-.18l-.08-.14c0-.2.08-.34.22-.44.14-.1.22-.24.22-.44h-.08v-.14c.25-.25.36-.4.34-.44-.02-.05,0-.2.11-.44.05-.1.12-.16.22-.18.1-.03.15-.08.15-.18,0-.05-.02-.1-.04-.15-.02-.05-.04-.1-.04-.14.05-.1.11-.21.18-.33.08-.12.16-.19.26-.19-.05,0-.08-.05-.08-.14,0-.05.14-.27.4-.66.27-.39.43-.61.48-.66h-.22s-.08-.02-.08-.07Zm-1.84,21.32s-.07.02-.07.07c0,.05.02.08.07.08.05,0,.08-.02.08-.08,0-.05-.02-.07-.08-.07Zm0,0s-.07.02-.07.07c0,.05.02.08.07.08.05,0,.08-.02.08-.08,0-.05-.02-.07-.08-.07Zm1.84-21.32v-.14c.1-.2.24-.4.44-.59,0-.05-.02-.1-.07-.14-.05-.05-.08-.1-.08-.14l-.08.07s-.14-.07-.29-.22h-.08c-.1.1-.24.25-.44.44-.2.2-.39.3-.59.3h-.22c-.2.14-.33.34-.4.59-.08.24-.28.42-.62.52-.2.05-.34.23-.44.55s-.2.48-.3.48h-.21c-.15.1-.26.29-.34.59-.07.29-.18.51-.33.66-.1.1-.3.4-.59.91-.3.52-.44.82-.44.92-.2-.05-.3-.02-.3.08s.02.15.04.18c.02.02.04.06.04.11v.08c-.15.14-.26.33-.34.55-.07.22-.16.46-.25.7-.05.1-.13.2-.22.29-.05.05-.13.1-.22.15-.05.19-.08.49-.08.88-.2.09-.28.18-.26.25.02.08,0,.21-.11.4-.1.25-.24.52-.44.81-.2.3-.27.56-.22.82v.14s.02.08.08.08v.07c0,.14-.08.24-.22.3,0,.05.05.07.14.07.2,0,.33-.08.4-.25.08-.18.24-.26.48-.26.1-.05.12-.14.07-.26-.05-.12.12-.16.52-.11.29-.54.59-1.01.88-1.4.1-.09.22-.15.37-.18.14-.02.27-.16.37-.4.05-.05.08-.1.08-.14v-.08c.05-.1.12-.17.22-.22.1-.05.17-.12.22-.22.14-.19.37-.53.66-1.03.3-.49.56-.75.82-.81-.05,0-.08-.05-.08-.14s.08-.18.22-.26c.14-.08.22-.14.22-.18l-.08-.14c0-.2.08-.34.22-.44.14-.1.22-.24.22-.44h-.08v-.14c.25-.25.36-.4.34-.44-.02-.05,0-.2.11-.44.05-.1.12-.16.22-.18.1-.03.15-.08.15-.18,0-.05-.02-.1-.04-.15-.02-.05-.04-.1-.04-.14.05-.1.11-.21.18-.33.08-.12.16-.19.26-.19-.05,0-.08-.05-.08-.14,0-.05.14-.27.4-.66.27-.39.43-.61.48-.66h-.22s-.08-.02-.08-.07Zm0,0v-.14c.1-.2.24-.4.44-.59,0-.05-.02-.1-.07-.14-.05-.05-.08-.1-.08-.14l-.08.07s-.14-.07-.29-.22h-.08c-.1.1-.24.25-.44.44-.2.2-.39.3-.59.3h-.22c-.2.14-.33.34-.4.59-.08.24-.28.42-.62.52-.2.05-.34.23-.44.55s-.2.48-.3.48h-.21c-.15.1-.26.29-.34.59-.07.29-.18.51-.33.66-.1.1-.3.4-.59.91-.3.52-.44.82-.44.92-.2-.05-.3-.02-.3.08s.02.15.04.18c.02.02.04.06.04.11v.08c-.15.14-.26.33-.34.55-.07.22-.16.46-.25.7-.05.1-.13.2-.22.29-.05.05-.13.1-.22.15-.05.19-.08.49-.08.88-.2.09-.28.18-.26.25.02.08,0,.21-.11.4-.1.25-.24.52-.44.81-.2.3-.27.56-.22.82v.14s.02.08.08.08v.07c0,.14-.08.24-.22.3,0,.05.05.07.14.07.2,0,.33-.08.4-.25.08-.18.24-.26.48-.26.1-.05.12-.14.07-.26-.05-.12.12-.16.52-.11.29-.54.59-1.01.88-1.4.1-.09.22-.15.37-.18.14-.02.27-.16.37-.4.05-.05.08-.1.08-.14v-.08c.05-.1.12-.17.22-.22.1-.05.17-.12.22-.22.14-.19.37-.53.66-1.03.3-.49.56-.75.82-.81-.05,0-.08-.05-.08-.14s.08-.18.22-.26c.14-.08.22-.14.22-.18l-.08-.14c0-.2.08-.34.22-.44.14-.1.22-.24.22-.44h-.08v-.14c.25-.25.36-.4.34-.44-.02-.05,0-.2.11-.44.05-.1.12-.16.22-.18.1-.03.15-.08.15-.18,0-.05-.02-.1-.04-.15-.02-.05-.04-.1-.04-.14.05-.1.11-.21.18-.33.08-.12.16-.19.26-.19-.05,0-.08-.05-.08-.14,0-.05.14-.27.4-.66.27-.39.43-.61.48-.66h-.22s-.08-.02-.08-.07Zm-1.84,21.32s-.07.02-.07.07c0,.05.02.08.07.08.05,0,.08-.02.08-.08,0-.05-.02-.07-.08-.07Zm0,0s-.07.02-.07.07c0,.05.02.08.07.08.05,0,.08-.02.08-.08,0-.05-.02-.07-.08-.07Zm1.84-21.32v-.14c.1-.2.24-.4.44-.59,0-.05-.02-.1-.07-.14-.05-.05-.08-.1-.08-.14l-.08.07s-.14-.07-.29-.22h-.08c-.1.1-.24.25-.44.44-.2.2-.39.3-.59.3h-.22c-.2.14-.33.34-.4.59-.08.24-.28.42-.62.52-.2.05-.34.23-.44.55s-.2.48-.3.48h-.21c-.15.1-.26.29-.34.59-.07.29-.18.51-.33.66-.1.1-.3.4-.59.91-.3.52-.44.82-.44.92-.2-.05-.3-.02-.3.08s.02.15.04.18c.02.02.04.06.04.11v.08c-.15.14-.26.33-.34.55-.07.22-.16.46-.25.7-.05.1-.13.2-.22.29-.05.05-.13.1-.22.15-.05.19-.08.49-.08.88-.2.09-.28.18-.26.25.02.08,0,.21-.11.4-.1.25-.24.52-.44.81-.2.3-.27.56-.22.82v.14s.02.08.08.08v.07c0,.14-.08.24-.22.3,0,.05.05.07.14.07.2,0,.33-.08.4-.25.08-.18.24-.26.48-.26.1-.05.12-.14.07-.26-.05-.12.12-.16.52-.11.29-.54.59-1.01.88-1.4.1-.09.22-.15.37-.18.14-.02.27-.16.37-.4.05-.05.08-.1.08-.14v-.08c.05-.1.12-.17.22-.22.1-.05.17-.12.22-.22.14-.19.37-.53.66-1.03.3-.49.56-.75.82-.81-.05,0-.08-.05-.08-.14s.08-.18.22-.26c.14-.08.22-.14.22-.18l-.08-.14c0-.2.08-.34.22-.44.14-.1.22-.24.22-.44h-.08v-.14c.25-.25.36-.4.34-.44-.02-.05,0-.2.11-.44.05-.1.12-.16.22-.18.1-.03.15-.08.15-.18,0-.05-.02-.1-.04-.15-.02-.05-.04-.1-.04-.14.05-.1.11-.21.18-.33.08-.12.16-.19.26-.19-.05,0-.08-.05-.08-.14,0-.05.14-.27.4-.66.27-.39.43-.61.48-.66h-.22s-.08-.02-.08-.07Zm0,0v-.14c.1-.2.24-.4.44-.59,0-.05-.02-.1-.07-.14-.05-.05-.08-.1-.08-.14l-.08.07s-.14-.07-.29-.22h-.08c-.1.1-.24.25-.44.44-.2.2-.39.3-.59.3h-.22c-.2.14-.33.34-.4.59-.08.24-.28.42-.62.52-.2.05-.34.23-.44.55s-.2.48-.3.48h-.21c-.15.1-.26.29-.34.59-.07.29-.18.51-.33.66-.1.1-.3.4-.59.91-.3.52-.44.82-.44.92-.2-.05-.3-.02-.3.08s.02.15.04.18c.02.02.04.06.04.11v.08c-.15.14-.26.33-.34.55-.07.22-.16.46-.25.7-.05.1-.13.2-.22.29-.05.05-.13.1-.22.15-.05.19-.08.49-.08.88-.2.09-.28.18-.26.25.02.08,0,.21-.11.4-.1.25-.24.52-.44.81-.2.3-.27.56-.22.82v.14s.02.08.08.08v.07c0,.14-.08.24-.22.3,0,.05.05.07.14.07.2,0,.33-.08.4-.25.08-.18.24-.26.48-.26.1-.05.12-.14.07-.26-.05-.12.12-.16.52-.11.29-.54.59-1.01.88-1.4.1-.09.22-.15.37-.18.14-.02.27-.16.37-.4.05-.05.08-.1.08-.14v-.08c.05-.1.12-.17.22-.22.1-.05.17-.12.22-.22.14-.19.37-.53.66-1.03.3-.49.56-.75.82-.81-.05,0-.08-.05-.08-.14s.08-.18.22-.26c.14-.08.22-.14.22-.18l-.08-.14c0-.2.08-.34.22-.44.14-.1.22-.24.22-.44h-.08v-.14c.25-.25.36-.4.34-.44-.02-.05,0-.2.11-.44.05-.1.12-.16.22-.18.1-.03.15-.08.15-.18,0-.05-.02-.1-.04-.15-.02-.05-.04-.1-.04-.14.05-.1.11-.21.18-.33.08-.12.16-.19.26-.19-.05,0-.08-.05-.08-.14,0-.05.14-.27.4-.66.27-.39.43-.61.48-.66h-.22s-.08-.02-.08-.07Zm-1.84,21.32s-.07.02-.07.07c0,.05.02.08.07.08.05,0,.08-.02.08-.08,0-.05-.02-.07-.08-.07Zm0,0s-.07.02-.07.07c0,.05.02.08.07.08.05,0,.08-.02.08-.08,0-.05-.02-.07-.08-.07Zm1.84-21.32v-.14c.1-.2.24-.4.44-.59,0-.05-.02-.1-.07-.14-.05-.05-.08-.1-.08-.14l-.08.07s-.14-.07-.29-.22h-.08c-.1.1-.24.25-.44.44-.2.2-.39.3-.59.3h-.22c-.2.14-.33.34-.4.59-.08.24-.28.42-.62.52-.2.05-.34.23-.44.55s-.2.48-.3.48h-.21c-.15.1-.26.29-.34.59-.07.29-.18.51-.33.66-.1.1-.3.4-.59.91-.3.52-.44.82-.44.92-.2-.05-.3-.02-.3.08s.02.15.04.18c.02.02.04.06.04.11v.08c-.15.14-.26.33-.34.55-.07.22-.16.46-.25.7-.05.1-.13.2-.22.29-.05.05-.13.1-.22.15-.05.19-.08.49-.08.88-.2.09-.28.18-.26.25.02.08,0,.21-.11.4-.1.25-.24.52-.44.81-.2.3-.27.56-.22.82v.14s.02.08.08.08v.07c0,.14-.08.24-.22.3,0,.05.05.07.14.07.2,0,.33-.08.4-.25.08-.18.24-.26.48-.26.1-.05.12-.14.07-.26-.05-.12.12-.16.52-.11.29-.54.59-1.01.88-1.4.1-.09.22-.15.37-.18.14-.02.27-.16.37-.4.05-.05.08-.1.08-.14v-.08c.05-.1.12-.17.22-.22.1-.05.17-.12.22-.22.14-.19.37-.53.66-1.03.3-.49.56-.75.82-.81-.05,0-.08-.05-.08-.14s.08-.18.22-.26c.14-.08.22-.14.22-.18l-.08-.14c0-.2.08-.34.22-.44.14-.1.22-.24.22-.44h-.08v-.14c.25-.25.36-.4.34-.44-.02-.05,0-.2.11-.44.05-.1.12-.16.22-.18.1-.03.15-.08.15-.18,0-.05-.02-.1-.04-.15-.02-.05-.04-.1-.04-.14.05-.1.11-.21.18-.33.08-.12.16-.19.26-.19-.05,0-.08-.05-.08-.14,0-.05.14-.27.4-.66.27-.39.43-.61.48-.66h-.22s-.08-.02-.08-.07Zm0,0v-.14c.1-.2.24-.4.44-.59,0-.05-.02-.1-.07-.14-.05-.05-.08-.1-.08-.14l-.08.07s-.14-.07-.29-.22h-.08c-.1.1-.24.25-.44.44-.2.2-.39.3-.59.3h-.22c-.2.14-.33.34-.4.59-.08.24-.28.42-.62.52-.2.05-.34.23-.44.55s-.2.48-.3.48h-.21c-.15.1-.26.29-.34.59-.07.29-.18.51-.33.66-.1.1-.3.4-.59.91-.3.52-.44.82-.44.92-.2-.05-.3-.02-.3.08s.02.15.04.18c.02.02.04.06.04.11v.08c-.15.14-.26.33-.34.55-.07.22-.16.46-.25.7-.05.1-.13.2-.22.29-.05.05-.13.1-.22.15-.05.19-.08.49-.08.88-.2.09-.28.18-.26.25.02.08,0,.21-.11.4-.1.25-.24.52-.44.81-.2.3-.27.56-.22.82v.14s.02.08.08.08v.07c0,.14-.08.24-.22.3,0,.05.05.07.14.07.2,0,.33-.08.4-.25.08-.18.24-.26.48-.26.1-.05.12-.14.07-.26-.05-.12.12-.16.52-.11.29-.54.59-1.01.88-1.4.1-.09.22-.15.37-.18.14-.02.27-.16.37-.4.05-.05.08-.1.08-.14v-.08c.05-.1.12-.17.22-.22.1-.05.17-.12.22-.22.14-.19.37-.53.66-1.03.3-.49.56-.75.82-.81-.05,0-.08-.05-.08-.14s.08-.18.22-.26c.14-.08.22-.14.22-.18l-.08-.14c0-.2.08-.34.22-.44.14-.1.22-.24.22-.44h-.08v-.14c.25-.25.36-.4.34-.44-.02-.05,0-.2.11-.44.05-.1.12-.16.22-.18.1-.03.15-.08.15-.18,0-.05-.02-.1-.04-.15-.02-.05-.04-.1-.04-.14.05-.1.11-.21.18-.33.08-.12.16-.19.26-.19-.05,0-.08-.05-.08-.14,0-.05.14-.27.4-.66.27-.39.43-.61.48-.66h-.22s-.08-.02-.08-.07Zm-1.84,21.32s-.07.02-.07.07c0,.05.02.08.07.08.05,0,.08-.02.08-.08,0-.05-.02-.07-.08-.07Zm0,0s-.07.02-.07.07c0,.05.02.08.07.08.05,0,.08-.02.08-.08,0-.05-.02-.07-.08-.07Zm1.84-21.32v-.14c.1-.2.24-.4.44-.59,0-.05-.02-.1-.07-.14-.05-.05-.08-.1-.08-.14l-.08.07s-.14-.07-.29-.22h-.08c-.1.1-.24.25-.44.44-.2.2-.39.3-.59.3h-.22c-.2.14-.33.34-.4.59-.08.24-.28.42-.62.52-.2.05-.34.23-.44.55s-.2.48-.3.48h-.21c-.15.1-.26.29-.34.59-.07.29-.18.51-.33.66-.1.1-.3.4-.59.91-.3.52-.44.82-.44.92-.2-.05-.3-.02-.3.08s.02.15.04.18c.02.02.04.06.04.11v.08c-.15.14-.26.33-.34.55-.07.22-.16.46-.25.7-.05.1-.13.2-.22.29-.05.05-.13.1-.22.15-.05.19-.08.49-.08.88-.2.09-.28.18-.26.25.02.08,0,.21-.11.4-.1.25-.24.52-.44.81-.2.3-.27.56-.22.82v.14s.02.08.08.08v.07c0,.14-.08.24-.22.3,0,.05.05.07.14.07.2,0,.33-.08.4-.25.08-.18.24-.26.48-.26.1-.05.12-.14.07-.26-.05-.12.12-.16.52-.11.29-.54.59-1.01.88-1.4.1-.09.22-.15.37-.18.14-.02.27-.16.37-.4.05-.05.08-.1.08-.14v-.08c.05-.1.12-.17.22-.22.1-.05.17-.12.22-.22.14-.19.37-.53.66-1.03.3-.49.56-.75.82-.81-.05,0-.08-.05-.08-.14s.08-.18.22-.26c.14-.08.22-.14.22-.18l-.08-.14c0-.2.08-.34.22-.44.14-.1.22-.24.22-.44h-.08v-.14c.25-.25.36-.4.34-.44-.02-.05,0-.2.11-.44.05-.1.12-.16.22-.18.1-.03.15-.08.15-.18,0-.05-.02-.1-.04-.15-.02-.05-.04-.1-.04-.14.05-.1.11-.21.18-.33.08-.12.16-.19.26-.19-.05,0-.08-.05-.08-.14,0-.05.14-.27.4-.66.27-.39.43-.61.48-.66h-.22s-.08-.02-.08-.07Zm0,0v-.14c.1-.2.24-.4.44-.59,0-.05-.02-.1-.07-.14-.05-.05-.08-.1-.08-.14l-.08.07s-.14-.07-.29-.22h-.08c-.1.1-.24.25-.44.44-.2.2-.39.3-.59.3h-.22c-.2.14-.33.34-.4.59-.08.24-.28.42-.62.52-.2.05-.34.23-.44.55s-.2.48-.3.48h-.21c-.15.1-.26.29-.34.59-.07.29-.18.51-.33.66-.1.1-.3.4-.59.91-.3.52-.44.82-.44.92-.2-.05-.3-.02-.3.08s.02.15.04.18c.02.02.04.06.04.11v.08c-.15.14-.26.33-.34.55-.07.22-.16.46-.25.7-.05.1-.13.2-.22.29-.05.05-.13.1-.22.15-.05.19-.08.49-.08.88-.2.09-.28.18-.26.25.02.08,0,.21-.11.4-.1.25-.24.52-.44.81-.2.3-.27.56-.22.82v.14s.02.08.08.08v.07c0,.14-.08.24-.22.3,0,.05.05.07.14.07.2,0,.33-.08.4-.25.08-.18.24-.26.48-.26.1-.05.12-.14.07-.26-.05-.12.12-.16.52-.11.29-.54.59-1.01.88-1.4.1-.09.22-.15.37-.18.14-.02.27-.16.37-.4.05-.05.08-.1.08-.14v-.08c.05-.1.12-.17.22-.22.1-.05.17-.12.22-.22.14-.19.37-.53.66-1.03.3-.49.56-.75.82-.81-.05,0-.08-.05-.08-.14s.08-.18.22-.26c.14-.08.22-.14.22-.18l-.08-.14c0-.2.08-.34.22-.44.14-.1.22-.24.22-.44h-.08v-.14c.25-.25.36-.4.34-.44-.02-.05,0-.2.11-.44.05-.1.12-.16.22-.18.1-.03.15-.08.15-.18,0-.05-.02-.1-.04-.15-.02-.05-.04-.1-.04-.14.05-.1.11-.21.18-.33.08-.12.16-.19.26-.19-.05,0-.08-.05-.08-.14,0-.05.14-.27.4-.66.27-.39.43-.61.48-.66h-.22s-.08-.02-.08-.07Zm-1.84,21.32s-.07.02-.07.07c0,.05.02.08.07.08.05,0,.08-.02.08-.08,0-.05-.02-.07-.08-.07Zm-19.16-127.62c-55.18,0-95.13,79.01-95.13,132.29,0,61.07,50.84,68.91,95.13,68.91s95.14-7.83,95.14-68.91c0-53.28-39.96-132.29-95.14-132.29Zm5.37,129.9c-.12.14-.21.24-.25.29v.08l-.08.08c.1,0,.14.05.14.14,0,.14-.18.38-.55.7-.37.31-.58.55-.62.69v.22c0,.05-.1.12-.3.22s-.42.21-.66.34c-.24.12-.49.22-.73.29-.24.08-.4.11-.44.11l-.08-.08c-.24.1-.4.16-.47.18-.08.02-.24.04-.48.04-.1.14-.3.24-.59.29-.3.05-.54.05-.74,0l.08.08v.08s-.02.08-.08.08c-.1.05-.2.09-.29.14-.1.05-.2.07-.3.07h-.88c0,.05-.07.11-.22.19-.14.07-.24.11-.29.11l-.15-.14c-.24-.1-.41,0-.51.29h-.81l-.08-.07c-.1.05-.2.07-.29.07h-.15c-.1,0-.19.05-.29.15-.1.09-.2.14-.3.14-.05,0-.08-.02-.11-.04-.03-.02-.06-.04-.11-.04-.1,0-.21.02-.33.04-.12.02-.26.04-.4.04l-.08-.14c-.14.05-.32.09-.51.14-.2.05-.35.08-.44.08-.1,0-.18-.03-.22-.08-.05-.05-.12-.08-.22-.08v.08h-.52s-.11-.02-.18-.04c-.08-.02-.14-.04-.18-.04-.05.05-.12.08-.22.08s-.18-.02-.22-.08c-.05-.05-.12-.07-.22-.07l-.14.14h-.14l-.3-.3c-.1,0-.12.05-.08.15.05.09.03.14-.07.14s-.19-.04-.26-.11c-.08-.07-.16-.11-.26-.11s-.16,0-.18.04c-.02.02-.08.04-.18.04s-.18-.03-.26-.08c-.08-.05-.16-.08-.26-.08-.05,0-.07.02-.07.04s-.03.04-.08.04-.08-.02-.08-.04-.05-.04-.14-.04c-.05,0-.08.02-.08.04s-.02.04-.07.04c-.1,0-.18-.04-.22-.11-.05-.07-.12-.11-.22-.11-.05,0-.11.02-.18.08-.08.05-.14.07-.18.07h-.08c-.1,0-.16-.07-.18-.22-.02-.14-.08-.22-.18-.22-.2.1-.34.15-.44.15s-.18-.05-.22-.15-.12-.14-.22-.14-.2.02-.3.08c-.1.05-.19.07-.29.07s-.14-.05-.14-.14-.08-.14-.22-.14l-.15.14h-.07c-.1,0-.18-.05-.22-.14-.05-.1-.12-.15-.22-.15-.3-.05-.6-.11-.92-.18-.32-.07-.6-.11-.85-.11h-.22c-.1,0-.3-.1-.62-.3-.32-.19-.53-.29-.62-.29s-.16,0-.18.04c-.02.02-.08.03-.18.03-.2,0-.3-.05-.3-.14h-.21l-.08.08h-.08c-.1,0-.18-.04-.26-.11-.07-.07-.18-.11-.33-.11h-.3c-.05-.05-.1-.08-.14-.08s-.08-.02-.08-.07c0,.05-.05.07-.14.07s-.17-.04-.22-.11c-.05-.08-.12-.14-.22-.18-.29-.05-.59-.1-.88-.15-.3-.05-.59-.07-.88-.07,0-.2-.05-.3-.15-.3h-.07s-.03.08-.08.08l-.14.07h-.08c-.1,0-.14-.04-.11-.11.02-.08-.02-.14-.11-.18l-.07.07c0,.05-.03.08-.08.08h-.08c-.1,0-.16-.04-.18-.11-.02-.08-.08-.11-.18-.11-.05.05-.1.08-.14.08h-.44c-.2,0-.38-.04-.55-.11-.18-.07-.31-.11-.41-.11l-.14.07h-.07s0-.07-.15-.22c-.05.05-.1.08-.14.08-.1,0-.16-.02-.18-.04-.02-.02-.08-.04-.18-.04l-.15.08c-.14,0-.23-.04-.25-.11-.03-.08-.09-.11-.18-.11-.1,0-.15.02-.15.04s-.05.04-.14.04c-.05,0-.1-.02-.14-.08-.05,0-.1-.02-.15-.07h-.07c-.1,0-.14.02-.11.07.02.05,0,.08-.11.08h-.15l-.14-.08-.07.08h-.08l-.22-.14-.14.07h-.08c-.1,0-.12-.02-.08-.07h-.29s-.05.07-.15.07h-.14l-.14-.07h-.22c-.14,0-.22-.05-.22-.15-.1.05-.2-.05-.3-.29l-.14-.44c0-.05.05-.18.14-.37.1-.2.21-.4.34-.59.12-.19.24-.37.37-.51.12-.14.21-.22.26-.22,0-.49.24-.69.73-.59.05-.15.12-.32.22-.52.1-.19.15-.34.15-.44s-.04-.21-.11-.33c-.08-.12-.11-.24-.11-.34,0-.05.11-.12.33-.21.22-.1.33-.27.33-.52,0-.2-.03-.3-.11-.3s-.11-.05-.11-.14.09-.16.26-.18c.18-.02.26-.16.26-.4v-.08c0-.14.02-.23.04-.25.02-.03.08-.06.18-.11v-.14c.1,0,.14-.03.14-.08s0-.08-.04-.11c-.02-.03-.03-.06-.03-.11,0-.1.03-.22.11-.37.08-.14.11-.3.11-.44,0-.1-.02-.14-.04-.14-.03,0-.04-.05-.04-.15,0-.14.1-.23.29-.25.2-.02.25-.16.15-.4.05-.05.07-.1.07-.15,0-.1,0-.14-.03-.14-.03,0-.04-.05-.04-.14s.04-.18.11-.22c.08-.05.14-.12.18-.22,0-.2.06-.34.19-.44.11-.1.18-.22.18-.37-.05,0-.08-.02-.08-.08v-.22c0-.24.05-.48.14-.7s.15-.45.15-.69v-.08c0-.1.07-.14.21-.14,0-.1,0-.18-.03-.22-.03-.05-.04-.12-.04-.22s.07-.18.22-.22c.14-.05.19-.14.14-.3l-.14-.22s.02-.07.07-.07h.08c0-.1.04-.26.11-.48.07-.22.18-.38.33-.48-.1,0-.14-.02-.14-.07,0-.2.07-.34.22-.44.14-.1.19-.27.14-.52-.05,0-.08-.02-.08-.07v-.08c-.05-.1.05-.14.3-.14v-.08c-.05,0-.08-.02-.08-.08l-.07-.14v-.07c.05-.1.09-.22.14-.37.1-.29.17-.44.22-.44l-.08-.07v-.22c0-.05.02-.08.08-.08l.07-.14v-.22c0-.1.03-.16.08-.18.05-.02.1-.08.14-.18l-.07-.15v-.07c0-.15.07-.3.22-.44.14-.15.22-.32.22-.52l-.08-.07c.05-.1.08-.14.11-.11.03.02.09.04.19.04,0-.2-.02-.36-.04-.48-.03-.12-.04-.25-.04-.4l.3-.29c-.05-.1-.08-.22-.08-.37v-.29c.19,0,.29-.05.29-.15,0-.09,0-.15-.03-.18-.03-.02-.04-.08-.04-.18s.08-.37.26-.81c.17-.44.3-.66.4-.66v-.29c-.05,0-.08-.02-.08-.08v-.14c0-.05.05-.08.14-.11.1-.02.15-.08.15-.18v-.07l-.08-.08v-.08s.05-.13.14-.26c.1-.12.15-.21.15-.25.05-.1.09-.24.14-.44.05-.2.07-.32.07-.37-.05-.05-.07-.1-.07-.15v-.07c0-.05.05-.08.14-.08s.14-.02.14-.08v-.44c-.1-.05-.14-.09-.14-.14,0-.1.04-.14.11-.14.07,0,.11-.02.11-.08v-.08l-.08-.14c.05-.14.14-.23.26-.26.12-.02.18-.08.18-.18,0-.09,0-.15-.04-.18-.02-.02-.03-.08-.03-.18h.14c.05-.19.11-.4.18-.62.08-.22.11-.45.11-.7.14,0,.21-.07.21-.22,0-.05-.02-.07-.07-.07-.05,0-.08-.02-.08-.08.1-.1.14-.18.14-.26,0-.07.05-.15.15-.25v-.08h-.08v-.14c0-.2.06-.37.18-.52.12-.14.18-.32.18-.51,0-.05,0-.09-.03-.11-.03-.02-.04-.06-.04-.11,0-.05.07-.11.22-.18.14-.08.22-.28.22-.62v-.37c0-.19.02-.39.07-.59.05-.19.1-.37.15-.51,0-.15.05-.21.14-.18.1.02.14-.02.14-.11s-.02-.16-.07-.18c-.05-.02-.08-.06-.08-.11,0-.09.04-.19.11-.29.08-.1.14-.18.18-.22v-.52h.15v-.44s.02-.07.07-.07c-.05-.05-.07-.1-.07-.14v-.08c.1-.14.17-.32.22-.52.05-.29.12-.51.22-.66,0-.05.02-.08.07-.08h.08c-.05,0-.08-.08-.08-.22,0-.1.1-.38.3-.85.19-.46.29-.72.29-.77,0-.1-.05-.15-.14-.15l.14-.14v-.08s0-.07-.03-.07c-.03,0-.04-.02-.04-.08,0-.1.06-.16.18-.18.12-.02.18-.06.18-.11,0-.1-.02-.15-.08-.15-.05,0-.07-.05-.07-.14,0-.2.07-.3.22-.3-.05-.05-.08-.14-.08-.29.1-.2.22-.43.37-.7.15-.27.22-.5.22-.7.05-.24.11-.5.18-.77.08-.27.11-.55.11-.85-.05,0-.08-.02-.08-.07v-.15c0-.24.14-.37.44-.37v-.08s-.08-.09-.08-.14v-.3h.22v-.59c.1,0,.15-.05.15-.14l-.08-.08v-.07c0-.1.05-.21.14-.34.1-.12.15-.21.15-.25v-.08l-.08-.14v-.08l.22-.08v-.07c-.05,0-.08-.03-.08-.08-.05-.05-.07-.1-.07-.14.09.05.17-.02.22-.18.05-.18.12-.28.22-.34-.1,0-.15-.1-.15-.29,0-.1.05-.19.15-.26.09-.08.14-.16.14-.26v-.08s-.03-.09-.08-.14c0-.05.02-.1.08-.14l.14-.15.08-.07v-.59c.1-.05.17-.18.22-.37.05-.19.12-.34.22-.43.09-.1.14-.2.14-.3l-.22-.22v-.14s.08-.02.08-.08c.05-.05.08-.12.11-.22.02-.1.06-.14.11-.14-.05-.05-.08-.1-.08-.14,0-.15.08-.27.22-.37s.22-.24.22-.44c0-.09-.03-.18-.08-.25-.05-.08-.08-.16-.08-.26h.3s.08-.06.11-.18c.03-.12.04-.24.04-.34.05-.09.06-.15.04-.18-.02-.02.02-.08.11-.18v-.51c-.05-.05-.08-.1-.08-.15v-.07l.3-.44c-.05-.24.02-.48.22-.7.19-.22.29-.43.29-.62v-.08s-.07,0-.07-.03c0-.03-.03-.04-.08-.04h-.08c0-.24.08-.42.22-.52s.24-.22.3-.37c.05,0,.06-.04.04-.11-.03-.08-.07-.14-.11-.19,0-.14.1-.3.3-.47.19-.18.31-.28.37-.34.14-.24.37-.37.66-.37s.61-.05.95-.14c.05,0,.1-.02.14-.08l.15-.14s.07.02.07.07c0,.05.05.08.15.08.05,0,.08,0,.11-.04.02-.02.08-.04.18-.04h.08c0,.05.02.08.08.08h.14c.1,0,.18-.04.26-.11.07-.08.15-.11.25-.11s.15.02.15.08c0,.05.05.07.14.07.05,0,.08-.02.08-.07l.07-.08.08-.07c.1,0,.18.03.26.11.07.08.16.11.25.11.1,0,.18-.03.22-.11.05-.08.12-.11.22-.11,0,.05.03.07.08.07l.14.08c.1.1.15.07.15-.08l.29.22c.05-.05.1-.08.15-.08.09,0,.19.04.29.11.1.08.2.11.3.11.05,0,.09-.02.14-.07.05,0,.08-.02.08-.08h.22c.09,0,.37.11.81.34.44.21.69.37.73.47.2-.1.37,0,.52.26.14.27.22.48.22.62.19,0,.27.04.22.11-.05.08-.03.14.07.19-.05.05-.11.12-.18.22-.07.09-.11.19-.11.29l.14.08c0,.24-.1.53-.3.85-.19.32-.29.62-.29.91v.08l.07.22-.07.08h-.08c-.1,0-.14-.03-.14-.08,0,.14-.02.3-.08.44-.05.14-.07.29-.07.44l.07.07v.08c0,.2-.08.4-.26.59-.17.2-.25.37-.25.52v.22c0,.14-.05.27-.15.37l.08.08-.08.07c0,.05-.02.1-.07.14-.05.05-.08.1-.08.15l.08.07c0,.1-.03.14-.08.11-.05-.02-.08.02-.08.11,0,.05.02.1.04.15.02.05.04.12.04.22,0,.19-.08.37-.22.51s-.22.34-.22.59v.08s-.04.14-.11.3c-.08.14-.16.24-.26.29.05,0,.08.05.08.14-.05.05-.08.1-.08.15.05,0,.08.02.08.07v.15c0,.1-.1.38-.3.85s-.34.72-.44.77c.1,0,.14.05.14.14s-.03.18-.11.22c-.08.05-.11.14-.11.3v.29c0,.1-.05.15-.14.15l.08.07v.08c0,.3-.12.56-.37.81-.25.24-.37.54-.37.88l.08.14c0,.24-.12.37-.37.37,0,.1.04.16.11.18.08.03.11.07.11.11,0,.24-.1.46-.3.66-.2.2-.3.39-.3.59,0,.05.02.08.04.11.03.03.04.07.04.11,0,.1-.06.2-.18.29-.12.1-.18.2-.18.3v.08c0,.1-.02.17-.08.22-.05.05-.07.12-.07.22l.07.14c0,.14-.04.26-.11.33-.08.08-.11.16-.11.26v.22c0,.1-.06.14-.18.14s-.18.05-.18.15c0,.05.02.07.04.07s.04.05.04.15c0,.19-.05.37-.15.51-.1.15-.14.32-.14.52v.37c0,.1-.05.16-.14.18-.1.02-.14.06-.14.11,0,.09,0,.14.03.14.03,0,.04.05.04.14s-.05.14-.14.14c0,.2-.06.35-.18.44-.12.1-.18.22-.18.37v.07l.07.08c0,.2-.07.36-.22.48-.14.12-.22.23-.22.33v.14c0,.05.03.08.08.08,0,.1-.05.24-.14.44s-.2.34-.3.44c.05.24.04.49-.04.73-.07.24-.13.5-.18.74-.05.14-.12.22-.22.22s-.14.12-.14.37v.14c0,.05.02.1.08.14v.08c0,.1-.1.2-.3.3l.08.07c.05.1,0,.22-.15.37s-.22.27-.22.37v.22c0,.1.03.14.08.14,0,.1-.06.14-.18.14s-.18.05-.18.15c.05,0,.08.02.08.07,0,.1.02.15.07.15,0,.29-.08.59-.26.88-.17.3-.25.56-.25.81l.07.08v.08c0,.1-.06.16-.18.18-.12.02-.18.08-.18.18v.08s.08.1.08.14c0,.14-.08.29-.22.44-.15.14-.2.27-.15.37,0,.05.02.1.04.14.02.05.04.1.04.15h.08c0,.1-.04.14-.11.14-.07,0-.14.05-.18.14.05,0,.08.05.08.15,0,.05-.05.11-.14.18-.1.07-.18.11-.22.11.05.24.03.37-.04.37-.08,0-.11.08-.11.22v.15l.08.14c0,.14-.06.26-.18.33-.12.08-.18.21-.18.4v.15s.02.07.07.07v.08c0,.2-.12.37-.37.51v.52l-.14.14c-.1.1-.15.2-.15.3v.37c0,.1-.05.2-.14.3s-.14.2-.14.29c0,.05,0,.08.04.08.02,0,.04.02.04.08,0,.05-.04.13-.11.25-.08.13-.16.21-.26.26.05.05.08.1.08.15.05.09,0,.23-.11.4-.12.17-.23.3-.33.4v.51c0,.05-.02.08-.08.08l-.14.07v.22l.08.08c0,.1-.04.14-.11.14-.07,0-.13.05-.18.15-.05.19-.06.38-.04.55.03.18.02.36-.03.55-.05.05-.13.18-.22.4-.1.22-.2.44-.3.66-.1.22-.24.53-.44.92.05.05.08.12.08.22s-.05.17-.15.22c-.09.05-.14.17-.14.37l.14.14c0,.1-.05.16-.14.18-.1.03-.14.09-.14.19,0,.09,0,.17.04.21.02.05.04.13.04.22,0-.05-.08,0-.22.15.05.34-.02.63-.19.88-.17.25-.3.5-.4.74l.08.08v.07c0,.1-.05.18-.14.22-.1.05-.15.12-.15.22.05.1.1.14.15.14.05,0,.07.05.07.15,0,.05-.07.11-.22.18-.14.08-.21.16-.21.26,0,.05,0,.07.03.07.03,0,.04.03.04.08s.02.08.08.08v.07c0,.1-.04.16-.11.18-.07.03-.11.11-.11.26v.14c0,.1-.08.15-.22.15,0,.1.02.14.08.14.05,0,.07.05.07.14,0,.05-.1.08-.29.08,0,.1,0,.16.03.18.03.02.04.06.04.11,0,.1-.07.14-.22.14v.59c0,.1-.04.14-.11.14-.08,0-.14.03-.18.08v.08l.07.22c.05,0,.08.02.08.07l-.3.74s.02.08.04.11c.02.02.04.06.04.11,0,.05-.06.13-.18.25-.12.13-.18.31-.18.56,0,.19.08.29.22.29h.14l.08-.07c.1,0,.22.06.37.18.14.12.3.18.44.18.05,0,.08-.02.08-.04s.05-.04.14-.04c.24,0,.48.09.69.26.22.18.46.26.7.26h.08l.07-.08c.25,0,.43.08.56.22.12.14.3.27.55.37v-.07h.14c.3,0,.56.08.82.25.24.18.51.26.81.26l.14-.07c.14.14.22.27.22.37l.14-.08c0,.05.02.08.08.08.05.05.1.07.14.07.05-.05.08-.09.08-.14l.14.14h.37c.1.1.18.16.22.19.05.02.12.13.22.33.05-.05.1-.08.15-.08.14,0,.27.05.4.15.12.09.25.17.4.22l2.5.59.07-.08c.15,0,.27.04.37.11.09.07.19.13.29.18h.08s.07-.02.07-.04.03-.04.08-.04v.08c.14,0,.24-.02.3-.04.05-.02.12-.04.22-.04.09,0,.19.04.29.11.1.07.22.11.37.11h3.16c.1,0,.2-.04.3-.11.1-.08.17-.11.22-.11h.07l.15.14h.51l.15-.07.07.07c0,.05.02.08.08.08h.08c.29,0,.59-.14.88-.44.05,0,.08.02.08.04s.02.04.08.04c0,.05.02.07.07.07.1,0,.18-.06.26-.18.08-.12.21-.18.4-.18l.22.14c.1,0,.14-.02.14-.07,0-.05.05-.1.15-.14.09-.05.34-.1.73-.15.39-.05.61-.1.66-.14v-.08c0-.1.02-.14.08-.14.19,0,.29.05.29.14h.08s.1-.05.14-.14.1-.18.14-.22h.59s.02.08.07.08c.1,0,.22-.03.37-.08.15-.05.27-.05.37,0l.07.08s.03.07.08.07c.05-.05.1-.07.14-.07l.88,1.17v.08s-.08.09-.08.14v.3c.15.14.22.24.22.29,0,.05-.06.15-.18.3Zm25-12.9c-.13.51-.34.79-.63.85.05.19.02.3-.11.33-.12.02-.26.08-.4.18,0,.3-.1.44-.3.44,0,.1-.06.24-.18.44-.12.2-.25.4-.4.62-.14.22-.29.4-.44.55-.14.14-.24.2-.29.14.09.1.07.22-.08.37-.1.19-.2.3-.3.33-.1.02-.24.18-.43.48-.1.05-.19.1-.26.14-.08.05-.16.08-.26.08v.37l-.37.44c-.3,0-.44.14-.44.44h-.37v.14c0,.05.02.08.07.08-.05.05-.16.18-.33.4-.18.22-.3.33-.4.33h-.22l-.14.37c-.25,0-.54.22-.88.66s-.56.66-.66.66c-.05,0-.1,0-.14-.04-.05-.02-.12-.03-.22-.03s-.15.06-.15.18-.05.18-.14.18v.22s-.21.14-.62.29c-.42.15-.67.27-.77.37-.05,0-.12.07-.22.19-.1.12-.18.21-.22.25-.05-.05-.12-.07-.22-.07s-.12.02-.08.07c.05.05-.05.05-.29,0-.05.05-.08.18-.08.37l-.14-.08c-.1.2-.27.3-.52.3-.1,0-.19-.05-.29-.15v.22c-.25.05-.5.12-.74.22-.24.1-.46.14-.66.14-.05-.05-.1-.07-.14-.07-.1,0-.14.05-.14.14s-.05.14-.14.14c-.05,0-.1,0-.15-.03-.05-.03-.12-.04-.22-.04s-.18,0-.26.04c-.07.02-.15.03-.25.03h-.08l-.22-.14-.14.14c-.05.05-.1.08-.14.08h-.88l-.08-.08-.14-.07c-.1,0-.21.02-.34.07-.12.05-.23.08-.33.08h-.3v-.08l-.07-.07-.15.07h-.21l-.22-.29c-.1.05-.16.05-.18,0-.03-.05-.09-.08-.19-.08l-.07.14h-.15c-.1,0-.32-.07-.66-.21-.34-.15-.7-.32-1.07-.52-.37-.2-.7-.38-1-.55-.29-.18-.43-.3-.43-.4v-.08s.07-.1.07-.14v-.08c-.1.05-.22.08-.37.08s-.24-.12-.3-.37c-.05-.24-.17-.41-.37-.51h-.22c-.05-.05-.12-.18-.22-.37-.1-.2-.2-.42-.29-.66-.1-.24-.2-.48-.3-.7-.1-.22-.18-.38-.22-.48l-.08-.07s-.07-.02-.07-.08l.14-.14v-.08c0-.1-.02-.18-.08-.26-.05-.07-.07-.18-.07-.33v-.14c0-.1-.04-.2-.11-.3-.07-.1-.11-.19-.11-.29,0-.05.02-.08.08-.08.05,0,.07-.02.07-.08,0-.1-.05-.22-.14-.37s-.14-.27-.14-.37c0-.05,0-.08.03-.08.03,0,.04-.02.04-.08v-.81s0-.07-.04-.07c-.02,0-.03-.05-.03-.15v-.07l.07-.15-.07-.14c0-.1.03-.2.11-.29.08-.1.11-.2.11-.3v-.08c-.05-.1-.08-.17-.08-.22v-.22c.14-.14.22-.31.22-.51v-.66h-.08c0-.14.06-.28.18-.4.12-.12.18-.23.18-.33s-.02-.18-.07-.22c-.05-.05-.08-.12-.08-.22s.05-.22.14-.37c.1-.14.2-.24.3-.29-.14-.14-.22-.27-.22-.37,0,.05.08,0,.22-.15l.08-.14v-.44c.24-.1.37-.24.37-.44-.05,0-.08-.02-.08-.07l-.07-.15.43-.59c.1-.1.15-.22.15-.37,0-.05-.02-.08-.04-.11-.02-.02-.04-.06-.04-.11l.14-.14c0-.1,0-.15-.03-.15-.03,0-.04-.05-.04-.14s.07-.21.22-.33c.14-.12.24-.24.29-.34.15-.1.24-.33.3-.69.05-.37.12-.6.22-.7.19-.14.3-.26.33-.34.02-.07.08-.23.18-.47.05-.2.15-.26.3-.18.14.07.2-.16.14-.7.1-.05.18-.1.22-.14.1-.1.18-.15.22-.15-.1-.19-.02-.44.22-.73.24-.3.44-.52.59-.66l.08.08.08-.08v-.29c.24,0,.35-.1.33-.3-.02-.2.08-.34.33-.44v-.14c.15-.05.28-.18.41-.4.11-.22.21-.4.25-.56,0-.05.1-.12.3-.22.19-.09.32-.19.37-.29.24-.24.52-.46.81-.62.3-.18.49-.4.59-.7.1-.1.24-.14.4-.14s.31-.02.4-.08c.05-.05.08-.1.08-.14v-.14c0-.05.08-.12.22-.22s.32-.21.52-.34c.19-.12.39-.24.59-.37.19-.12.32-.21.37-.26.24-.24.53-.38.85-.4.32-.02.6-.16.85-.4l.08-.08s.07,0,.07-.03c0-.03.02-.04.08-.04v.07h.22c.24,0,.39-.02.44-.07l-.15-.14.08-.08s.1.08.14.08h.3c.2,0,.37-.05.52-.15.14-.1.31-.14.51-.14h.08l.07.08c.05,0,.08-.02.11-.04.02-.02.06-.04.11-.04h.59c.1,0,.22.02.37.04.14.02.24,0,.29-.04h.15l.07-.08c.2,0,.4.06.59.18.2.12.4.19.59.19v-.08c.14,0,.24.08.29.22.05.14.12.27.22.37h.14c.1,0,.2.05.3.14.44.25.71.64.81,1.18.1.24.16.34.18.29.02-.05.08.08.18.37v.07l.08.44.08.08v.07c0,.1-.02.18-.04.22-.02.05-.04.12-.04.22s.05.18.14.26c.1.08.15.16.15.26,0,.05-.03.08-.08.11-.05.03-.08.09-.08.18,0,.05.03.08.08.08s.08.05.08.14c0,.05-.1.12-.3.22.1.05.14.12.14.22s0,.18-.03.22c-.03.05-.07.12-.11.22v.66c0,.1-.02.14-.04.14s-.06.05-.11.15c.05.05.07.14.07.29s-.03.26-.11.34c-.08.07-.11.15-.11.25s.02.15.04.15.04.05.04.14c0,.05-.04.07-.11.07-.08,0-.11.05-.11.15l.14.22c-.1.29-.22.54-.37.73-.1.15-.2.32-.29.52l-.15.29v.44c-.19.05-.34.25-.44.59l-.14.08c-.1.1-.14.22-.14.37,0,.15-.02.27-.08.37-.1.14-.21.27-.33.37-.12.1-.16.27-.11.51l-.37.37v.14s.08.1.08.14c0,.05-.04.08-.11.08-.07,0-.14.05-.18.14-.29.3-.59.74-.88,1.33-.29.59-.63.98-1.03,1.17-.05.05-.07.12-.07.22v.14h-.37c0,.1-.03.21-.11.34-.08.12-.14.23-.18.33-.05.1-.12.14-.22.11-.1-.02-.14-.02-.14.04-.1.14-.25.33-.44.55-.2.22-.37.4-.52.55,0,.05-.02.08-.08.08l-.07-.08c-.24.1-.4.28-.44.56-.05.27-.24.4-.59.4v.37c0-.1-.1-.08-.3.08-.05,0-.08.07-.08.21-.09.15-.23.2-.4.15-.17-.05-.28.02-.33.22h-.3v.29c0,.05-.18.22-.55.52-.37.29-.58.49-.62.59-.1.05-.18.05-.22,0s-.1-.02-.14.08c-.1.1-.3.25-.59.47-.3.22-.5.36-.59.4,0,.15.08.29.22.41.15.12.27.25.37.4h.07c.05-.05.1-.08.15-.08h.07c.1,0,.21.1.34.3.12.19.25.29.4.29h.14l.14-.08.22.08h.44c.1-.1.18-.14.26-.14h.18c0-.1.02-.14.08-.14.05,0,.11,0,.18.03.07.03.13.04.18.04.14,0,.38-.06.7-.18.31-.12.47-.28.47-.48.24.05.46,0,.62-.18.18-.17.38-.26.62-.26v-.21c.24,0,.5-.1.74-.3s.44-.37.59-.52c.05-.05.18-.19.4-.44.22-.24.36-.37.4-.37.05.05.1.08.14.08h.22c0-.39.18-.71.52-.96v-.21h.22c0-.15.13-.38.4-.7.27-.32.56-.66.88-1.03.31-.37.61-.72.88-1.07.27-.34.4-.64.4-.88.05,0,.11-.02.19-.08.07-.05.13-.07.18-.07l.07-.08v-.44c.2-.09.34-.19.44-.29s.24-.22.44-.37c.05,0,.08.02.08.07,0,.1.02.14.07.14.1,0,.15-.03.15-.11s.02-.11.07-.11c.2,0,.5.05.88.14.05.1.12.14.22.14s.18-.02.22-.08c.05-.05.12-.07.22-.07.14,0,.24.04.3.11.05.08.12.16.22.26.19.1.37.18.55.22.17.05.3.22.4.51.14-.14.22-.12.22.08v.08c-.05,0-.08.02-.08.07v.15c.05.05.1.07.15.07l.14.08c-.24.24-.43.62-.55,1.14Zm-15.92-.48c.1-.05.12-.14.07-.26-.05-.12.12-.16.52-.11.29-.54.59-1.01.88-1.4.1-.09.22-.15.37-.18.14-.02.27-.16.37-.4.05-.05.08-.1.08-.14v-.08c.05-.1.12-.17.22-.22.1-.05.17-.12.22-.22.14-.19.37-.53.66-1.03.3-.49.56-.75.82-.81-.05,0-.08-.05-.08-.14s.08-.18.22-.26c.14-.08.22-.14.22-.18l-.08-.14c0-.2.08-.34.22-.44.14-.1.22-.24.22-.44h-.08v-.14c.25-.25.36-.4.34-.44-.02-.05,0-.2.11-.44.05-.1.12-.16.22-.18.1-.03.15-.08.15-.18,0-.05-.02-.1-.04-.15-.02-.05-.04-.1-.04-.14.05-.1.11-.21.18-.33.08-.12.16-.19.26-.19-.05,0-.08-.05-.08-.14,0-.05.14-.27.4-.66.27-.39.43-.61.48-.66h-.22s-.08-.02-.08-.07v-.14c.1-.2.24-.4.44-.59,0-.05-.02-.1-.07-.14-.05-.05-.08-.1-.08-.14l-.08.07s-.14-.07-.29-.22h-.08c-.1.1-.24.25-.44.44-.2.2-.39.3-.59.3h-.22c-.2.14-.33.34-.4.59-.08.24-.28.42-.62.52-.2.05-.34.23-.44.55s-.2.48-.3.48h-.21c-.15.1-.26.29-.34.59-.07.29-.18.51-.33.66-.1.1-.3.4-.59.91-.3.52-.44.82-.44.92-.2-.05-.3-.02-.3.08s.02.15.04.18c.02.02.04.06.04.11v.08c-.15.14-.26.33-.34.55-.07.22-.16.46-.25.7-.05.1-.13.2-.22.29-.05.05-.13.1-.22.15-.05.19-.08.49-.08.88-.2.09-.28.18-.26.25.02.08,0,.21-.11.4-.1.25-.24.52-.44.81-.2.3-.27.56-.22.82v.14s.02.08.08.08v.07c0,.14-.08.24-.22.3,0,.05.05.07.14.07.2,0,.33-.08.4-.25.08-.18.24-.26.48-.26Zm4.7,11.1s-.07.02-.07.07c0,.05.02.08.07.08.05,0,.08-.02.08-.08,0-.05-.02-.07-.08-.07Zm0,0s-.07.02-.07.07c0,.05.02.08.07.08.05,0,.08-.02.08-.08,0-.05-.02-.07-.08-.07Zm1.84-21.32v-.14c.1-.2.24-.4.44-.59,0-.05-.02-.1-.07-.14-.05-.05-.08-.1-.08-.14l-.08.07s-.14-.07-.29-.22h-.08c-.1.1-.24.25-.44.44-.2.2-.39.3-.59.3h-.22c-.2.14-.33.34-.4.59-.08.24-.28.42-.62.52-.2.05-.34.23-.44.55s-.2.48-.3.48h-.21c-.15.1-.26.29-.34.59-.07.29-.18.51-.33.66-.1.1-.3.4-.59.91-.3.52-.44.82-.44.92-.2-.05-.3-.02-.3.08s.02.15.04.18c.02.02.04.06.04.11v.08c-.15.14-.26.33-.34.55-.07.22-.16.46-.25.7-.05.1-.13.2-.22.29-.05.05-.13.1-.22.15-.05.19-.08.49-.08.88-.2.09-.28.18-.26.25.02.08,0,.21-.11.4-.1.25-.24.52-.44.81-.2.3-.27.56-.22.82v.14s.02.08.08.08v.07c0,.14-.08.24-.22.3,0,.05.05.07.14.07.2,0,.33-.08.4-.25.08-.18.24-.26.48-.26.1-.05.12-.14.07-.26-.05-.12.12-.16.52-.11.29-.54.59-1.01.88-1.4.1-.09.22-.15.37-.18.14-.02.27-.16.37-.4.05-.05.08-.1.08-.14v-.08c.05-.1.12-.17.22-.22.1-.05.17-.12.22-.22.14-.19.37-.53.66-1.03.3-.49.56-.75.82-.81-.05,0-.08-.05-.08-.14s.08-.18.22-.26c.14-.08.22-.14.22-.18l-.08-.14c0-.2.08-.34.22-.44.14-.1.22-.24.22-.44h-.08v-.14c.25-.25.36-.4.34-.44-.02-.05,0-.2.11-.44.05-.1.12-.16.22-.18.1-.03.15-.08.15-.18,0-.05-.02-.1-.04-.15-.02-.05-.04-.1-.04-.14.05-.1.11-.21.18-.33.08-.12.16-.19.26-.19-.05,0-.08-.05-.08-.14,0-.05.14-.27.4-.66.27-.39.43-.61.48-.66h-.22s-.08-.02-.08-.07Zm0,0v-.14c.1-.2.24-.4.44-.59,0-.05-.02-.1-.07-.14-.05-.05-.08-.1-.08-.14l-.08.07s-.14-.07-.29-.22h-.08c-.1.1-.24.25-.44.44-.2.2-.39.3-.59.3h-.22c-.2.14-.33.34-.4.59-.08.24-.28.42-.62.52-.2.05-.34.23-.44.55s-.2.48-.3.48h-.21c-.15.1-.26.29-.34.59-.07.29-.18.51-.33.66-.1.1-.3.4-.59.91-.3.52-.44.82-.44.92-.2-.05-.3-.02-.3.08s.02.15.04.18c.02.02.04.06.04.11v.08c-.15.14-.26.33-.34.55-.07.22-.16.46-.25.7-.05.1-.13.2-.22.29-.05.05-.13.1-.22.15-.05.19-.08.49-.08.88-.2.09-.28.18-.26.25.02.08,0,.21-.11.4-.1.25-.24.52-.44.81-.2.3-.27.56-.22.82v.14s.02.08.08.08v.07c0,.14-.08.24-.22.3,0,.05.05.07.14.07.2,0,.33-.08.4-.25.08-.18.24-.26.48-.26.1-.05.12-.14.07-.26-.05-.12.12-.16.52-.11.29-.54.59-1.01.88-1.4.1-.09.22-.15.37-.18.14-.02.27-.16.37-.4.05-.05.08-.1.08-.14v-.08c.05-.1.12-.17.22-.22.1-.05.17-.12.22-.22.14-.19.37-.53.66-1.03.3-.49.56-.75.82-.81-.05,0-.08-.05-.08-.14s.08-.18.22-.26c.14-.08.22-.14.22-.18l-.08-.14c0-.2.08-.34.22-.44.14-.1.22-.24.22-.44h-.08v-.14c.25-.25.36-.4.34-.44-.02-.05,0-.2.11-.44.05-.1.12-.16.22-.18.1-.03.15-.08.15-.18,0-.05-.02-.1-.04-.15-.02-.05-.04-.1-.04-.14.05-.1.11-.21.18-.33.08-.12.16-.19.26-.19-.05,0-.08-.05-.08-.14,0-.05.14-.27.4-.66.27-.39.43-.61.48-.66h-.22s-.08-.02-.08-.07Zm-1.84,21.32s-.07.02-.07.07c0,.05.02.08.07.08.05,0,.08-.02.08-.08,0-.05-.02-.07-.08-.07Zm0,0s-.07.02-.07.07c0,.05.02.08.07.08.05,0,.08-.02.08-.08,0-.05-.02-.07-.08-.07Zm1.84-21.32v-.14c.1-.2.24-.4.44-.59,0-.05-.02-.1-.07-.14-.05-.05-.08-.1-.08-.14l-.08.07s-.14-.07-.29-.22h-.08c-.1.1-.24.25-.44.44-.2.2-.39.3-.59.3h-.22c-.2.14-.33.34-.4.59-.08.24-.28.42-.62.52-.2.05-.34.23-.44.55s-.2.48-.3.48h-.21c-.15.1-.26.29-.34.59-.07.29-.18.51-.33.66-.1.1-.3.4-.59.91-.3.52-.44.82-.44.92-.2-.05-.3-.02-.3.08s.02.15.04.18c.02.02.04.06.04.11v.08c-.15.14-.26.33-.34.55-.07.22-.16.46-.25.7-.05.1-.13.2-.22.29-.05.05-.13.1-.22.15-.05.19-.08.49-.08.88-.2.09-.28.18-.26.25.02.08,0,.21-.11.4-.1.25-.24.52-.44.81-.2.3-.27.56-.22.82v.14s.02.08.08.08v.07c0,.14-.08.24-.22.3,0,.05.05.07.14.07.2,0,.33-.08.4-.25.08-.18.24-.26.48-.26.1-.05.12-.14.07-.26-.05-.12.12-.16.52-.11.29-.54.59-1.01.88-1.4.1-.09.22-.15.37-.18.14-.02.27-.16.37-.4.05-.05.08-.1.08-.14v-.08c.05-.1.12-.17.22-.22.1-.05.17-.12.22-.22.14-.19.37-.53.66-1.03.3-.49.56-.75.82-.81-.05,0-.08-.05-.08-.14s.08-.18.22-.26c.14-.08.22-.14.22-.18l-.08-.14c0-.2.08-.34.22-.44.14-.1.22-.24.22-.44h-.08v-.14c.25-.25.36-.4.34-.44-.02-.05,0-.2.11-.44.05-.1.12-.16.22-.18.1-.03.15-.08.15-.18,0-.05-.02-.1-.04-.15-.02-.05-.04-.1-.04-.14.05-.1.11-.21.18-.33.08-.12.16-.19.26-.19-.05,0-.08-.05-.08-.14,0-.05.14-.27.4-.66.27-.39.43-.61.48-.66h-.22s-.08-.02-.08-.07Zm0,0v-.14c.1-.2.24-.4.44-.59,0-.05-.02-.1-.07-.14-.05-.05-.08-.1-.08-.14l-.08.07s-.14-.07-.29-.22h-.08c-.1.1-.24.25-.44.44-.2.2-.39.3-.59.3h-.22c-.2.14-.33.34-.4.59-.08.24-.28.42-.62.52-.2.05-.34.23-.44.55s-.2.48-.3.48h-.21c-.15.1-.26.29-.34.59-.07.29-.18.51-.33.66-.1.1-.3.4-.59.91-.3.52-.44.82-.44.92-.2-.05-.3-.02-.3.08s.02.15.04.18c.02.02.04.06.04.11v.08c-.15.14-.26.33-.34.55-.07.22-.16.46-.25.7-.05.1-.13.2-.22.29-.05.05-.13.1-.22.15-.05.19-.08.49-.08.88-.2.09-.28.18-.26.25.02.08,0,.21-.11.4-.1.25-.24.52-.44.81-.2.3-.27.56-.22.82v.14s.02.08.08.08v.07c0,.14-.08.24-.22.3,0,.05.05.07.14.07.2,0,.33-.08.4-.25.08-.18.24-.26.48-.26.1-.05.12-.14.07-.26-.05-.12.12-.16.52-.11.29-.54.59-1.01.88-1.4.1-.09.22-.15.37-.18.14-.02.27-.16.37-.4.05-.05.08-.1.08-.14v-.08c.05-.1.12-.17.22-.22.1-.05.17-.12.22-.22.14-.19.37-.53.66-1.03.3-.49.56-.75.82-.81-.05,0-.08-.05-.08-.14s.08-.18.22-.26c.14-.08.22-.14.22-.18l-.08-.14c0-.2.08-.34.22-.44.14-.1.22-.24.22-.44h-.08v-.14c.25-.25.36-.4.34-.44-.02-.05,0-.2.11-.44.05-.1.12-.16.22-.18.1-.03.15-.08.15-.18,0-.05-.02-.1-.04-.15-.02-.05-.04-.1-.04-.14.05-.1.11-.21.18-.33.08-.12.16-.19.26-.19-.05,0-.08-.05-.08-.14,0-.05.14-.27.4-.66.27-.39.43-.61.48-.66h-.22s-.08-.02-.08-.07Zm-1.84,21.32s-.07.02-.07.07c0,.05.02.08.07.08.05,0,.08-.02.08-.08,0-.05-.02-.07-.08-.07Zm0,0s-.07.02-.07.07c0,.05.02.08.07.08.05,0,.08-.02.08-.08,0-.05-.02-.07-.08-.07Zm1.84-21.32v-.14c.1-.2.24-.4.44-.59,0-.05-.02-.1-.07-.14-.05-.05-.08-.1-.08-.14l-.08.07s-.14-.07-.29-.22h-.08c-.1.1-.24.25-.44.44-.2.2-.39.3-.59.3h-.22c-.2.14-.33.34-.4.59-.08.24-.28.42-.62.52-.2.05-.34.23-.44.55s-.2.48-.3.48h-.21c-.15.1-.26.29-.34.59-.07.29-.18.51-.33.66-.1.1-.3.4-.59.91-.3.52-.44.82-.44.92-.2-.05-.3-.02-.3.08s.02.15.04.18c.02.02.04.06.04.11v.08c-.15.14-.26.33-.34.55-.07.22-.16.46-.25.7-.05.1-.13.2-.22.29-.05.05-.13.1-.22.15-.05.19-.08.49-.08.88-.2.09-.28.18-.26.25.02.08,0,.21-.11.4-.1.25-.24.52-.44.81-.2.3-.27.56-.22.82v.14s.02.08.08.08v.07c0,.14-.08.24-.22.3,0,.05.05.07.14.07.2,0,.33-.08.4-.25.08-.18.24-.26.48-.26.1-.05.12-.14.07-.26-.05-.12.12-.16.52-.11.29-.54.59-1.01.88-1.4.1-.09.22-.15.37-.18.14-.02.27-.16.37-.4.05-.05.08-.1.08-.14v-.08c.05-.1.12-.17.22-.22.1-.05.17-.12.22-.22.14-.19.37-.53.66-1.03.3-.49.56-.75.82-.81-.05,0-.08-.05-.08-.14s.08-.18.22-.26c.14-.08.22-.14.22-.18l-.08-.14c0-.2.08-.34.22-.44.14-.1.22-.24.22-.44h-.08v-.14c.25-.25.36-.4.34-.44-.02-.05,0-.2.11-.44.05-.1.12-.16.22-.18.1-.03.15-.08.15-.18,0-.05-.02-.1-.04-.15-.02-.05-.04-.1-.04-.14.05-.1.11-.21.18-.33.08-.12.16-.19.26-.19-.05,0-.08-.05-.08-.14,0-.05.14-.27.4-.66.27-.39.43-.61.48-.66h-.22s-.08-.02-.08-.07Zm0,0v-.14c.1-.2.24-.4.44-.59,0-.05-.02-.1-.07-.14-.05-.05-.08-.1-.08-.14l-.08.07s-.14-.07-.29-.22h-.08c-.1.1-.24.25-.44.44-.2.2-.39.3-.59.3h-.22c-.2.14-.33.34-.4.59-.08.24-.28.42-.62.52-.2.05-.34.23-.44.55s-.2.48-.3.48h-.21c-.15.1-.26.29-.34.59-.07.29-.18.51-.33.66-.1.1-.3.4-.59.91-.3.52-.44.82-.44.92-.2-.05-.3-.02-.3.08s.02.15.04.18c.02.02.04.06.04.11v.08c-.15.14-.26.33-.34.55-.07.22-.16.46-.25.7-.05.1-.13.2-.22.29-.05.05-.13.1-.22.15-.05.19-.08.49-.08.88-.2.09-.28.18-.26.25.02.08,0,.21-.11.4-.1.25-.24.52-.44.81-.2.3-.27.56-.22.82v.14s.02.08.08.08v.07c0,.14-.08.24-.22.3,0,.05.05.07.14.07.2,0,.33-.08.4-.25.08-.18.24-.26.48-.26.1-.05.12-.14.07-.26-.05-.12.12-.16.52-.11.29-.54.59-1.01.88-1.4.1-.09.22-.15.37-.18.14-.02.27-.16.37-.4.05-.05.08-.1.08-.14v-.08c.05-.1.12-.17.22-.22.1-.05.17-.12.22-.22.14-.19.37-.53.66-1.03.3-.49.56-.75.82-.81-.05,0-.08-.05-.08-.14s.08-.18.22-.26c.14-.08.22-.14.22-.18l-.08-.14c0-.2.08-.34.22-.44.14-.1.22-.24.22-.44h-.08v-.14c.25-.25.36-.4.34-.44-.02-.05,0-.2.11-.44.05-.1.12-.16.22-.18.1-.03.15-.08.15-.18,0-.05-.02-.1-.04-.15-.02-.05-.04-.1-.04-.14.05-.1.11-.21.18-.33.08-.12.16-.19.26-.19-.05,0-.08-.05-.08-.14,0-.05.14-.27.4-.66.27-.39.43-.61.48-.66h-.22s-.08-.02-.08-.07Zm-1.84,21.32s-.07.02-.07.07c0,.05.02.08.07.08.05,0,.08-.02.08-.08,0-.05-.02-.07-.08-.07Zm0,0s-.07.02-.07.07c0,.05.02.08.07.08.05,0,.08-.02.08-.08,0-.05-.02-.07-.08-.07Zm1.84-21.32v-.14c.1-.2.24-.4.44-.59,0-.05-.02-.1-.07-.14-.05-.05-.08-.1-.08-.14l-.08.07s-.14-.07-.29-.22h-.08c-.1.1-.24.25-.44.44-.2.2-.39.3-.59.3h-.22c-.2.14-.33.34-.4.59-.08.24-.28.42-.62.52-.2.05-.34.23-.44.55s-.2.48-.3.48h-.21c-.15.1-.26.29-.34.59-.07.29-.18.51-.33.66-.1.1-.3.4-.59.91-.3.52-.44.82-.44.92-.2-.05-.3-.02-.3.08s.02.15.04.18c.02.02.04.06.04.11v.08c-.15.14-.26.33-.34.55-.07.22-.16.46-.25.7-.05.1-.13.2-.22.29-.05.05-.13.1-.22.15-.05.19-.08.49-.08.88-.2.09-.28.18-.26.25.02.08,0,.21-.11.4-.1.25-.24.52-.44.81-.2.3-.27.56-.22.82v.14s.02.08.08.08v.07c0,.14-.08.24-.22.3,0,.05.05.07.14.07.2,0,.33-.08.4-.25.08-.18.24-.26.48-.26.1-.05.12-.14.07-.26-.05-.12.12-.16.52-.11.29-.54.59-1.01.88-1.4.1-.09.22-.15.37-.18.14-.02.27-.16.37-.4.05-.05.08-.1.08-.14v-.08c.05-.1.12-.17.22-.22.1-.05.17-.12.22-.22.14-.19.37-.53.66-1.03.3-.49.56-.75.82-.81-.05,0-.08-.05-.08-.14s.08-.18.22-.26c.14-.08.22-.14.22-.18l-.08-.14c0-.2.08-.34.22-.44.14-.1.22-.24.22-.44h-.08v-.14c.25-.25.36-.4.34-.44-.02-.05,0-.2.11-.44.05-.1.12-.16.22-.18.1-.03.15-.08.15-.18,0-.05-.02-.1-.04-.15-.02-.05-.04-.1-.04-.14.05-.1.11-.21.18-.33.08-.12.16-.19.26-.19-.05,0-.08-.05-.08-.14,0-.05.14-.27.4-.66.27-.39.43-.61.48-.66h-.22s-.08-.02-.08-.07Zm0,0v-.14c.1-.2.24-.4.44-.59,0-.05-.02-.1-.07-.14-.05-.05-.08-.1-.08-.14l-.08.07s-.14-.07-.29-.22h-.08c-.1.1-.24.25-.44.44-.2.2-.39.3-.59.3h-.22c-.2.14-.33.34-.4.59-.08.24-.28.42-.62.52-.2.05-.34.23-.44.55s-.2.48-.3.48h-.21c-.15.1-.26.29-.34.59-.07.29-.18.51-.33.66-.1.1-.3.4-.59.91-.3.52-.44.82-.44.92-.2-.05-.3-.02-.3.08s.02.15.04.18c.02.02.04.06.04.11v.08c-.15.14-.26.33-.34.55-.07.22-.16.46-.25.7-.05.1-.13.2-.22.29-.05.05-.13.1-.22.15-.05.19-.08.49-.08.88-.2.09-.28.18-.26.25.02.08,0,.21-.11.4-.1.25-.24.52-.44.81-.2.3-.27.56-.22.82v.14s.02.08.08.08v.07c0,.14-.08.24-.22.3,0,.05.05.07.14.07.2,0,.33-.08.4-.25.08-.18.24-.26.48-.26.1-.05.12-.14.07-.26-.05-.12.12-.16.52-.11.29-.54.59-1.01.88-1.4.1-.09.22-.15.37-.18.14-.02.27-.16.37-.4.05-.05.08-.1.08-.14v-.08c.05-.1.12-.17.22-.22.1-.05.17-.12.22-.22.14-.19.37-.53.66-1.03.3-.49.56-.75.82-.81-.05,0-.08-.05-.08-.14s.08-.18.22-.26c.14-.08.22-.14.22-.18l-.08-.14c0-.2.08-.34.22-.44.14-.1.22-.24.22-.44h-.08v-.14c.25-.25.36-.4.34-.44-.02-.05,0-.2.11-.44.05-.1.12-.16.22-.18.1-.03.15-.08.15-.18,0-.05-.02-.1-.04-.15-.02-.05-.04-.1-.04-.14.05-.1.11-.21.18-.33.08-.12.16-.19.26-.19-.05,0-.08-.05-.08-.14,0-.05.14-.27.4-.66.27-.39.43-.61.48-.66h-.22s-.08-.02-.08-.07Zm-1.84,21.32s-.07.02-.07.07c0,.05.02.08.07.08.05,0,.08-.02.08-.08,0-.05-.02-.07-.08-.07Zm0,0s-.07.02-.07.07c0,.05.02.08.07.08.05,0,.08-.02.08-.08,0-.05-.02-.07-.08-.07Zm1.84-21.32v-.14c.1-.2.24-.4.44-.59,0-.05-.02-.1-.07-.14-.05-.05-.08-.1-.08-.14l-.08.07s-.14-.07-.29-.22h-.08c-.1.1-.24.25-.44.44-.2.2-.39.3-.59.3h-.22c-.2.14-.33.34-.4.59-.08.24-.28.42-.62.52-.2.05-.34.23-.44.55s-.2.48-.3.48h-.21c-.15.1-.26.29-.34.59-.07.29-.18.51-.33.66-.1.1-.3.4-.59.91-.3.52-.44.82-.44.92-.2-.05-.3-.02-.3.08s.02.15.04.18c.02.02.04.06.04.11v.08c-.15.14-.26.33-.34.55-.07.22-.16.46-.25.7-.05.1-.13.2-.22.29-.05.05-.13.1-.22.15-.05.19-.08.49-.08.88-.2.09-.28.18-.26.25.02.08,0,.21-.11.4-.1.25-.24.52-.44.81-.2.3-.27.56-.22.82v.14s.02.08.08.08v.07c0,.14-.08.24-.22.3,0,.05.05.07.14.07.2,0,.33-.08.4-.25.08-.18.24-.26.48-.26.1-.05.12-.14.07-.26-.05-.12.12-.16.52-.11.29-.54.59-1.01.88-1.4.1-.09.22-.15.37-.18.14-.02.27-.16.37-.4.05-.05.08-.1.08-.14v-.08c.05-.1.12-.17.22-.22.1-.05.17-.12.22-.22.14-.19.37-.53.66-1.03.3-.49.56-.75.82-.81-.05,0-.08-.05-.08-.14s.08-.18.22-.26c.14-.08.22-.14.22-.18l-.08-.14c0-.2.08-.34.22-.44.14-.1.22-.24.22-.44h-.08v-.14c.25-.25.36-.4.34-.44-.02-.05,0-.2.11-.44.05-.1.12-.16.22-.18.1-.03.15-.08.15-.18,0-.05-.02-.1-.04-.15-.02-.05-.04-.1-.04-.14.05-.1.11-.21.18-.33.08-.12.16-.19.26-.19-.05,0-.08-.05-.08-.14,0-.05.14-.27.4-.66.27-.39.43-.61.48-.66h-.22s-.08-.02-.08-.07Zm0,0v-.14c.1-.2.24-.4.44-.59,0-.05-.02-.1-.07-.14-.05-.05-.08-.1-.08-.14l-.08.07s-.14-.07-.29-.22h-.08c-.1.1-.24.25-.44.44-.2.2-.39.3-.59.3h-.22c-.2.14-.33.34-.4.59-.08.24-.28.42-.62.52-.2.05-.34.23-.44.55s-.2.48-.3.48h-.21c-.15.1-.26.29-.34.59-.07.29-.18.51-.33.66-.1.1-.3.4-.59.91-.3.52-.44.82-.44.92-.2-.05-.3-.02-.3.08s.02.15.04.18c.02.02.04.06.04.11v.08c-.15.14-.26.33-.34.55-.07.22-.16.46-.25.7-.05.1-.13.2-.22.29-.05.05-.13.1-.22.15-.05.19-.08.49-.08.88-.2.09-.28.18-.26.25.02.08,0,.21-.11.4-.1.25-.24.52-.44.81-.2.3-.27.56-.22.82v.14s.02.08.08.08v.07c0,.14-.08.24-.22.3,0,.05.05.07.14.07.2,0,.33-.08.4-.25.08-.18.24-.26.48-.26.1-.05.12-.14.07-.26-.05-.12.12-.16.52-.11.29-.54.59-1.01.88-1.4.1-.09.22-.15.37-.18.14-.02.27-.16.37-.4.05-.05.08-.1.08-.14v-.08c.05-.1.12-.17.22-.22.1-.05.17-.12.22-.22.14-.19.37-.53.66-1.03.3-.49.56-.75.82-.81-.05,0-.08-.05-.08-.14s.08-.18.22-.26c.14-.08.22-.14.22-.18l-.08-.14c0-.2.08-.34.22-.44.14-.1.22-.24.22-.44h-.08v-.14c.25-.25.36-.4.34-.44-.02-.05,0-.2.11-.44.05-.1.12-.16.22-.18.1-.03.15-.08.15-.18,0-.05-.02-.1-.04-.15-.02-.05-.04-.1-.04-.14.05-.1.11-.21.18-.33.08-.12.16-.19.26-.19-.05,0-.08-.05-.08-.14,0-.05.14-.27.4-.66.27-.39.43-.61.48-.66h-.22s-.08-.02-.08-.07Zm-1.84,21.32s-.07.02-.07.07c0,.05.02.08.07.08.05,0,.08-.02.08-.08,0-.05-.02-.07-.08-.07Z"/>
  <g>
    <path class="cls-1" d="m366.09,290.55c0,4.55,0,16.64,11.18,16.64,2.56,0,5.34-.61,8.29-1.25,3.43-.75,7-1.52,10.73-1.52s7.29.77,10.73,1.52c.77.17,1.5.3,2.25.45-.15-.29-.3-.59-.43-.84-1.17-2.27-2.34-4.53-3.41-6.75-2.82-.56-5.88-1.03-9.13-1.03-4.51,0-8.63.9-12.27,1.68-2.56.56-4.97,1.08-6.75,1.08-1.68,0-4.22,0-4.22-9.98,0-4.41-3.31-10.86-6.83-17.69-2.5-4.87-7.15-13.92-6.31-16.04,1.19-2.53,5.23-3.81,12.04-3.81,4.83,0,10.16,3.97,14.86,4.54,3.77.45,7.03.85,9.47.85s5.38-.31,8.88-.66c4.38-.44,9.33-4.27,13.97-4.27,5.82,0,9.88.83,12.18,2.43.49,0,.94-.06,1.44-.06,2.35,0,4.71.13,7.04.3-.06-.18-.07-.39-.15-.56-3.73-8.76-16.37-8.76-20.51-8.76-5.01,0-10.16.52-14.7.98-3.31.33-6.18.63-8.15.63s-5.22-.39-8.59-.79c-4.91-.59-10.47-1.27-15.74-1.27-3.65,0-14.77,0-18.39,7.76-2.26,4.82,1.76,12.64,6.41,21.67,2.86,5.57,6.11,11.89,6.11,14.76Z"/>
    <path class="cls-1" d="m483.24,256.32c.68,0,1.29.06,1.95.09,1.43-2.24,5.36-3.39,11.76-3.39,4.83,0,10.16,3.97,14.86,4.54,3.77.45,7.03.85,9.47.85s5.38-.31,8.88-.66c4.38-.44,9.33-4.27,13.97-4.27,8.02,0,12.76,1.55,14.05,4.59.62,2.12-3.88,10.34-6.57,15.25-3.82,6.98-7.1,13.01-7.1,17.25,0,5.43-.83,7.81-1.52,8.86-.41.62-.9,1.12-2.7,1.12s-4.17-.52-6.73-1.08c-3.64-.79-7.77-1.68-12.28-1.68-2.95,0-5.7.39-8.29.88-1.25,2.47-2.63,5.01-4.06,7.62.55-.11,1.07-.2,1.63-.33,3.43-.75,7-1.52,10.73-1.52s7.29.77,10.73,1.52c2.95.64,5.74,1.25,8.28,1.25,3.84,0,6.73-1.42,8.59-4.21,1.77-2.68,2.6-6.62,2.6-12.43,0-2.61,3.51-9.02,6.32-14.18,5.48-10.02,8.74-16.38,6.84-20.81-3.73-8.76-16.37-8.76-20.51-8.76-5.01,0-10.16.52-14.7.98-3.31.33-6.18.63-8.15.63s-5.22-.39-8.59-.79c-4.91-.59-10.47-1.27-15.74-1.27-3.65,0-14.77,0-18.39,7.76-.34.73-.5,1.55-.58,2.42,1.75-.09,3.47-.22,5.26-.22Z"/>
    <path class="cls-1" d="m521.17,309.93c-5.31,0-10.45.82-15.43,2.28-.93,1.8-1.76,3.51-2.16,4.58-.03,2.26-.2,4.32-.46,6.27,5.8-2.53,11.83-3.96,18.05-3.96,43.78,0,79.32,69.27,79.32,114.47,0,26.05-10.81,39.94-34.78,46.26-.5,5-1.34,9.66-2.5,13.97,26.07-6.49,46.88-22.46,46.88-60.23,0-49.79-37.33-123.64-88.92-123.64Z"/>
    <path class="cls-1" d="m351.65,479.83c-23.96-6.32-34.77-20.21-34.77-46.26,0-45.2,35.54-114.47,79.31-114.47,6.31,0,12.44,1.48,18.33,4.08-.3-2.05-.5-4.26-.53-6.7-.28-.93-.94-2.43-1.72-4.07-5.18-1.58-10.54-2.48-16.07-2.48-51.58,0-88.91,73.85-88.91,123.64,0,37.77,20.81,53.74,46.88,60.23-1.16-4.31-1.99-8.97-2.51-13.97Z"/>
  </g>
</svg>